<?xml version="1.0"?>
<svg width="1000" height="1000" xmlns="http://www.w3.org/2000/svg" xmlns:svg="http://www.w3.org/2000/svg">
 <!-- Created with SVG-edit - https://github.com/SVG-Edit/svgedit-->
 <g class="layer">
  <title>Layer 1</title>
  <g id="svg_6"/>
  <rect fill="#ffd4aa" height="340.529408" id="svg_1" stroke="#000000" stroke-width="2" width="386.000005" x="216.499995" y="322.656848"/>
  <path d="m258.807564,352.250989l103.331418,0l0,0c6.85153,0 13.422402,2.103026 18.267144,5.846444c4.844742,3.743417 7.566498,8.820581 7.566498,14.11457l0,99.802682c0,0.000539 -0.000603,0.000993 -0.0013,0.000993l-154.997398,-0.000993l0,0c-0.000707,0 -0.0013,-0.000442 -0.0013,-0.001005l0.0013,-99.801673l0,0c0,-11.024165 11.566099,-19.961014 25.833637,-19.961014l0,-0.000004z" fill="#cca9f2" id="svg_2" stroke="#000000" stroke-dasharray="null" stroke-linecap="null" stroke-linejoin="null" stroke-width="2"/>
  <path d="m49.80756,378.839228l103.33142,0l0,0c6.85153,0 13.4224,0.755064 18.26715,2.099092c4.84474,1.344024 7.56649,3.166917 7.56649,5.067655l0,35.832871c0,0.000191 -0.0006,0.000354 -0.0013,0.000354l-154.99739,-0.000354l0,0c-0.00071,0 -0.0013,-0.000159 -0.0013,-0.000362l0.0013,-35.832509l0,0c0,-3.958085 11.5661,-7.166743 25.83363,-7.166743l0,-0.000004z" fill="#aaaaff" id="svg_5" stroke="#000000" stroke-dasharray="null" stroke-linecap="null" stroke-linejoin="null" stroke-width="2"/>
  <path d="m48.473031,355.839232l25.999518,0l0,0c1.723933,0 3.377249,0.403869 4.596251,1.122768c1.218999,0.718894 1.903827,1.693933 1.903827,2.710607l0,19.166407c0,0.000102 -0.000151,0.000187 -0.000327,0.000187l-38.999343,-0.000187l0,0c-0.000179,0 -0.000327,-0.000086 -0.000327,-0.000198l0.000327,-19.166209l0,0c0,-2.117117 2.91018,-3.833375 6.500075,-3.833375l0,0z" fill="#aaaaff" id="svg_7" stroke="#000000" stroke-dasharray="null" stroke-linecap="null" stroke-linejoin="null" stroke-width="2"/>
  <path d="m258.631089,538.839226l103.33142,0l0,0c6.85153,0 13.4224,1.650598 18.26715,4.588712c4.84474,2.938093 7.56649,6.92304 7.56649,11.078149l0,78.332383c0,0.000415 -0.0006,0.000765 -0.0013,0.000765l-154.99739,-0.000765l0,0c-0.00071,0 -0.0013,-0.00035 -0.0013,-0.000809l0.0013,-78.331575l0,0c0,-8.652576 11.5661,-15.666861 25.83363,-15.666861l0,0z" fill="#d4ffaa" id="svg_8" stroke="#000000" stroke-dasharray="null" stroke-linecap="null" stroke-linejoin="null" stroke-width="2"/>
  <path d="m258.47303,515.83923l25.99952,0l0,0c1.72393,0 3.37725,0.40387 4.59625,1.12277c1.219,0.71889 1.90383,1.69393 1.90383,2.71061l0,19.1664c0,0.00011 -0.00015,0.00019 -0.00033,0.00019l-38.99934,-0.00019l0,0c-0.00018,0 -0.00033,-0.00008 -0.00033,-0.00019l0.00033,-19.16621l0,0c0,-2.11712 2.91018,-3.83338 6.50007,-3.83338l0,0z" fill="#d4ffaa" id="svg_9" stroke="#000000" stroke-dasharray="null" stroke-linecap="null" stroke-linejoin="null" stroke-width="2"/>
  <path d="m455.572266,538.83923l103.33142,0l0,0c6.85153,0 13.4224,1.65059 18.26715,4.58871c4.84474,2.93809 7.56649,6.92304 7.56649,11.07815l0,78.33238c0,0.00042 -0.0006,0.00077 -0.0013,0.00077l-154.99739,-0.00077l0,0c-0.00071,0 -0.0013,-0.00035 -0.0013,-0.00081l0.0013,-78.33157l0,0c0,-8.65258 11.5661,-15.66686 25.83363,-15.66686l0,0z" fill="#56ff56" id="svg_10" stroke="#000000" stroke-dasharray="null" stroke-linecap="null" stroke-linejoin="null" stroke-width="2"/>
  <path d="m454.237736,515.83923l25.99952,0l0,0c1.72393,0 3.37725,0.40387 4.59625,1.12277c1.219,0.71889 1.90383,1.69393 1.90383,2.71061l0,19.1664c0,0.00011 -0.00015,0.00019 -0.00033,0.00019l-38.99934,-0.00019l0,0c-0.00018,0 -0.00033,-0.00008 -0.00033,-0.00019l0.00033,-19.16621l0,0c0,-2.11712 2.91018,-3.83338 6.50007,-3.83338l0,0z" fill="#56ff56" id="svg_11" stroke="#000000" stroke-dasharray="null" stroke-linecap="null" stroke-linejoin="null" stroke-width="2"/>
  <line fill="none" id="svg_12" stroke="#7f0000" stroke-dasharray="null" stroke-linecap="null" stroke-linejoin="null" stroke-width="5" x1="642.617649" x2="642.617649" y1="309.127457" y2="748.874714"/>
  <rect fill="#56ff56" height="69.823529" id="svg_13" stroke="#000000" stroke-width="2" width="197.058819" x="682.323522" y="562.833305"/>
  <rect fill="#ffd4aa" height="39.671024" id="svg_14" stroke="#000000" stroke-width="2" width="81.764705" x="136.441128" y="247.53919"/>
  <rect fill="#ffd4aa" height="39.671024" id="svg_15" stroke="#000000" stroke-width="2" width="81.764705" x="176.441128" y="705.18624"/>
  <rect fill="#ffd4aa" height="39.671024" id="svg_16" stroke="#000000" stroke-width="2" width="81.764705" x="359.970532" y="705.18624"/>
  <rect fill="#ffd4aa" height="39.671024" id="svg_17" stroke="#000000" stroke-width="2" width="81.764705" x="532.911714" y="704.009769"/>
  <text fill="#000000" font-family="Fantasy" font-size="24" id="svg_22" stroke="#000000" stroke-dasharray="null" stroke-linecap="null" stroke-linejoin="null" stroke-width="0" text-anchor="middle" transform="matrix(1.72662 0 0 1.72662 -275.604 -182.222)" x="400.745093" xml:space="preserve" y="279.867648">frontend</text>
  <text fill="#000000" font-family="Fantasy" font-size="24" id="svg_23" stroke="#000000" stroke-dasharray="null" stroke-linecap="null" stroke-linejoin="null" stroke-width="0" text-anchor="middle" transform="matrix(1.72662 0 0 1.72662 -252.075 -158.693)" x="597.66162" xml:space="preserve" y="405.921468">backend</text>
  <text fill="#000000" font-family="Monospace" font-size="24" id="svg_24" stroke="#000000" stroke-dasharray="null" stroke-linecap="null" stroke-linejoin="null" stroke-width="0" text-anchor="middle" x="100.196078" xml:space="preserve" y="409.215689">directive</text>
  <text fill="#000000" font-family="Monospace" font-size="24" id="svg_26" stroke="#000000" stroke-dasharray="null" stroke-linecap="null" stroke-linejoin="null" stroke-width="0" text-anchor="middle" x="310.784315" xml:space="preserve" y="380.980391">template</text>
  <text fill="#000000" font-family="Monospace" font-size="24" id="svg_27" stroke="#000000" stroke-dasharray="null" stroke-linecap="null" stroke-linejoin="null" stroke-width="0" text-anchor="middle" x="309.607843" xml:space="preserve" y="569.215678">component</text>
  <text fill="#000000" font-family="Monospace" font-size="24" id="svg_28" stroke="#000000" stroke-dasharray="null" stroke-linecap="null" stroke-linejoin="null" stroke-width="0" text-anchor="middle" x="506.078432" xml:space="preserve" y="570.392149">service</text>
  <line fill="none" id="svg_30" stroke="#000000" stroke-dasharray="null" stroke-linecap="null" stroke-linejoin="null" stroke-width="2" x1="489.607843" x2="489.607843" y1="555.098039" y2="553.921569"/>
  <text fill="#000000" font-family="Monospace" font-size="24" id="svg_31" stroke="#000000" stroke-dasharray="null" stroke-linecap="null" stroke-linejoin="null" stroke-width="0" text-anchor="middle" x="556.666661" xml:space="preserve" y="345.686274">module</text>
  <text fill="#000000" font-family="Monospace" font-size="24" id="svg_32" stroke="#000000" stroke-dasharray="null" stroke-linecap="null" stroke-linejoin="null" stroke-width="0" text-anchor="middle" transform="matrix(0.732525 0 0 0.732525 143.655 92.8806)" x="46.670969" xml:space="preserve" y="247.156071">module</text>
  <text fill="#000000" font-family="Monospace" font-size="24" id="svg_33" stroke="#000000" stroke-dasharray="null" stroke-linecap="null" stroke-linejoin="null" stroke-width="0" text-anchor="middle" transform="matrix(0.732525 0 0 0.732525 143.655 92.8806)" x="99.670575" xml:space="preserve" y="870.302801">module</text>
  <text fill="#000000" font-family="Monospace" font-size="24" id="svg_34" stroke="#000000" stroke-dasharray="null" stroke-linecap="null" stroke-linejoin="null" stroke-width="0" text-anchor="middle" transform="matrix(0.732525 0 0 0.732525 143.655 92.8806)" x="351.82016" xml:space="preserve" y="870.302801">module</text>
  <text fill="#000000" font-family="Monospace" font-size="24" id="svg_35" stroke="#000000" stroke-dasharray="null" stroke-linecap="null" stroke-linejoin="null" stroke-width="0" text-anchor="middle" transform="matrix(0.732525 0 0 0.732525 143.655 92.8806)" x="586.303198" xml:space="preserve" y="870.3028">module</text>
  <text fill="#000000" font-family="Monospace" font-size="20" id="svg_37" stroke="#ff5656" stroke-dasharray="null" stroke-linecap="null" stroke-linejoin="null" stroke-width="0" text-anchor="middle" x="61.372551" xml:space="preserve" y="371.568627">@</text>
  <text fill="#000000" font-family="Monospace" font-size="20" id="svg_38" stroke="#ff5656" stroke-dasharray="null" stroke-linecap="null" stroke-linejoin="null" stroke-width="0" text-anchor="middle" x="271.96079" xml:space="preserve" y="532.745097">@</text>
  <text fill="#000000" font-family="Monospace" font-size="20" id="svg_39" stroke="#ff5656" stroke-dasharray="null" stroke-linecap="null" stroke-linejoin="null" stroke-width="0" text-anchor="middle" x="467.254908" xml:space="preserve" y="532.745097">@</text>
  <text fill="#000000" font-family="Cursive" font-size="20" font-weight="bold" id="svg_40" stroke="#ff5656" stroke-dasharray="null" stroke-linecap="null" stroke-linejoin="null" stroke-width="0" text-anchor="middle" transform="matrix(1.46325 0 0 1.46325 -262.169 166.058)" x="711.960784" xml:space="preserve" y="299.177194">model</text>
  <text fill="#000000" font-family="Cursive" font-size="20" font-weight="bold" id="svg_41" stroke="#ff5656" stroke-dasharray="null" stroke-linecap="null" stroke-linejoin="null" stroke-width="0" style="cursor: move;" text-anchor="middle" transform="matrix(1.46325 0 0 1.46325 -262.169 166.058)" x="524.625993" xml:space="preserve" y="301.58923">(model)</text>
  <text fill="#000000" font-family="Cursive" font-size="20" font-weight="bold" id="svg_42" stroke="#ff5656" stroke-dasharray="null" stroke-linecap="null" stroke-linejoin="null" stroke-width="0" style="cursor: move;" text-anchor="middle" transform="matrix(1.46325 0 0 1.46325 -262.169 166.058)" x="390.35599" xml:space="preserve" y="301.58923">controller</text>
  <text fill="#000000" font-family="Cursive" font-size="20" font-weight="bold" id="svg_44" stroke="#ff5656" stroke-dasharray="null" stroke-linecap="null" stroke-linejoin="null" stroke-width="0" text-anchor="middle" transform="matrix(1.46325 0 0 1.46325 -262.169 166.058)" x="391.16" xml:space="preserve" y="176.967366">view</text>
  <line fill="none" id="svg_45" stroke="#000000" stroke-dasharray="null" stroke-linecap="null" stroke-linejoin="null" stroke-width="2" x1="175.490197" x2="240.196078" y1="286.862746" y2="322.156863"/>
  <line fill="none" id="svg_46" stroke="#000000" stroke-dasharray="null" stroke-linecap="null" stroke-linejoin="null" stroke-width="2" x1="237.843137" x2="215.490196" y1="662.156863" y2="705.686275"/>
  <line fill="none" id="svg_47" stroke="#000000" stroke-dasharray="null" stroke-linecap="null" stroke-linejoin="null" stroke-width="2" x1="544.901959" x2="577.843138" y1="662.156863" y2="703.333335"/>
  <line fill="none" id="svg_48" stroke="#000000" stroke-dasharray="null" stroke-linecap="null" stroke-linejoin="null" stroke-width="2" x1="401.372549" x2="401.372549" y1="705.686275" y2="663.333333"/>
  <rect fill="#c0a0e5" height="39.671024" id="svg_50" stroke="#000000" stroke-width="2" width="81.764705" x="56.441128" y="574.59802"/>
  <text fill="#000000" font-family="Monospace" font-size="24" id="svg_51" stroke="#000000" stroke-dasharray="null" stroke-linecap="null" stroke-linejoin="null" stroke-width="0" text-anchor="middle" transform="matrix(0.732525 0 0 0.732525 143.655 92.8806)" x="-64.146358" xml:space="preserve" y="692.031431">css</text>
 </g>
</svg>