<?xml version="1.0" standalone="no"?>
<!DOCTYPE svg PUBLIC "-//W3C//DTD SVG 1.1//EN" "http://www.w3.org/Graphics/SVG/1.1/DTD/svg11.dtd" >
<svg xmlns="http://www.w3.org/2000/svg">
<metadata></metadata>
<defs>
<font id="sansationbold" horiz-adv-x="1625" >
<font-face units-per-em="2048" ascent="1638" descent="-410" />
<missing-glyph horiz-adv-x="350" />
<glyph horiz-adv-x="2048" />
<glyph horiz-adv-x="2048" />
<glyph unicode="&#xd;" horiz-adv-x="390" />
<glyph unicode=" "  horiz-adv-x="350" />
<glyph unicode="&#x09;" horiz-adv-x="350" />
<glyph unicode="&#xa0;" horiz-adv-x="350" />
<glyph unicode="!" horiz-adv-x="565" d="M0 0v245h265v-245h-265zM0 370v1060h265v-1060h-265z" />
<glyph unicode="&#x22;" horiz-adv-x="815" d="M0 1430l30 -435h185l30 435h-245zM370 1430l30 -435h185l30 435h-245z" />
<glyph unicode="#" horiz-adv-x="1893" d="M0 344l30 154h402l89 378h-401l30 154h412l100 395h180l-100 -395h378l102 400h180l-101 -400h392l-30 -154h-402l-89 -378h401l-30 -154h-412l-90 -349h-180l90 349h-378l-90 -349h-180l89 349h-392zM613 498h377l90 378h-377z" />
<glyph unicode="$" horiz-adv-x="1050" d="M-20 940q0 250 320 300v190h235v-190q120 -10 245 -50v-220q-175 60 -343 60q-202 0 -202 -110q0 -90 115 -90h110q370 0 370 -320q0 -270 -295 -320v-190h-235v190q-145 10 -270 50v220q175 -60 364 -60q171 0 171 110q0 90 -125 90h-110q-350 0 -350 340z" />
<glyph unicode="%" horiz-adv-x="1502" d="M0 0l1017 1430h265l-1017 -1430h-265zM0 1140q0 300 328 300q324 0 324 -300q0 -319 -324 -319q-328 0 -328 319zM190 1142q0 -147 138 -147q134 0 134 147q0 124 -134 124q-138 0 -138 -124zM650 299q0 310 328 310q324 0 324 -310q0 -309 -324 -309q-328 0 -328 309z M840 301q0 -137 138 -137q134 0 134 137q0 134 -134 134q-138 0 -138 -134z" />
<glyph unicode="&#x26;" horiz-adv-x="1335" d="M0 414q0 -417 525 -417q548 0 548 493v130h162v210h-182l-102 142h-143v-142h-338q-205 0 -205 210q0 180 258 180q172 0 347 -50v210q-175 50 -360 50q-510 0 -510 -395q0 -223 183 -308q-183 -86 -183 -313zM265 419q0 201 207 201h336v-128q0 -282 -282 -282 q-261 0 -261 209z" />
<glyph unicode="'" horiz-adv-x="445" d="M0 1430l30 -435h185l30 435h-245z" />
<glyph unicode="(" horiz-adv-x="640" d="M0 525q0 -453 200 -905h265q-200 452 -200 905t200 905h-265q-200 -452 -200 -905z" />
<glyph unicode=")" horiz-adv-x="640" d="M-1 -380h265q200 452 200 905t-200 905h-265q200 -452 200 -905t-200 -905z" />
<glyph unicode="*" horiz-adv-x="810" d="M-1 1150l48 150l211 -103l-31 233h156l-30 -232l209 101l48 -147l-228 -43l159 -170l-123 -92l-113 205l-113 -204l-124 89l161 171z" />
<glyph unicode="+" horiz-adv-x="950" d="M0 420h270v-270h210v270h270v210h-270v270h-210v-270h-270v-210z" />
<glyph unicode="," horiz-adv-x="615" d="M0 -250h265l150 435h-265z" />
<glyph unicode="-" horiz-adv-x="700" d="M0 420v210h500v-210h-500z" />
<glyph unicode="." horiz-adv-x="465" d="M0 0h265v245h-265v-245z" />
<glyph unicode="/" horiz-adv-x="1060" d="M0 0l725 1430h285l-725 -1430h-285z" />
<glyph unicode="0" horiz-adv-x="1375" d="M0 713q0 727 638 727q627 0 627 -727q0 -723 -627 -723q-638 0 -638 723zM275 719q0 -499 363 -499q352 0 352 499q0 491 -352 491q-363 0 -363 -491z" />
<glyph unicode="1" horiz-adv-x="585" d="M-150 1181h150v-1181h265v1430l-415 -140v-109z" />
<glyph unicode="2" horiz-adv-x="1180" d="M0 0v200q715 497 715 820q0 190 -260 190q-220 0 -415 -110v240q195 100 415 100q525 0 525 -420q0 -370 -573 -790h573v-230h-980z" />
<glyph unicode="3" horiz-adv-x="1115" d="M0 50v240q200 -70 420 -70q270 0 270 180q0 210 -192 210h-348v230h345q195 0 195 210q0 160 -270 160q-220 0 -420 -70v240q200 60 420 60q535 0 535 -390q0 -236 -188 -325q188 -85 188 -325q0 -410 -535 -410q-220 0 -420 60z" />
<glyph unicode="4" horiz-adv-x="1125" d="M1 340v230l395 860h264l-386 -860h329v528h265v-528l148 -76v-154h-148v-340h-265v340h-602z" />
<glyph unicode="5" horiz-adv-x="1175" d="M0 660l50 770h894v-230h-656l-24 -272q107 12 206 12q570 0 570 -480q0 -470 -550 -470q-270 0 -470 60v240q200 -70 470 -70q285 0 285 240q0 250 -305 250q-275 0 -470 -50z" />
<glyph unicode="6" horiz-adv-x="1240" d="M0 530q0 466 508 943l201 -157q-257 -196 -369 -419q101 33 195 33q505 0 505 -460q0 -480 -513 -480q-527 0 -527 540zM255 546q0 -326 281 -326q243 0 243 250q0 230 -251 230q-135 0 -255 -38q-18 -50 -18 -116z" />
<glyph unicode="7" horiz-adv-x="1125" d="M0 1200v230h950v-210l-572 -1220h-291l582 1200h-669z" />
<glyph unicode="8" horiz-adv-x="1240" d="M0 424q0 223 212 331q-172 95 -172 323q0 366 520 366t520 -366q0 -228 -177 -323q217 -108 217 -331q0 -434 -550 -434q-570 0 -570 434zM265 418q0 -198 310 -198q280 0 280 198q0 212 -293 212q-297 0 -297 -212zM305 1048q0 -188 260 -188q250 0 250 188 q0 162 -253 162q-257 0 -257 -162z" />
<glyph unicode="9" horiz-adv-x="1190" d="M0 964q0 480 533 480q507 0 507 -540q0 -466 -508 -943l-215 165q271 188 383 411q-103 -63 -216 -63q-484 0 -484 490zM261 964q0 -250 232 -250q154 0 274 69q18 39 18 105q0 326 -261 326q-263 0 -263 -250z" />
<glyph unicode=":" horiz-adv-x="465" d="M0 0h265v245h-265v-245zM0 805h265v245h-265v-245z" />
<glyph unicode=";" horiz-adv-x="615" d="M0 -250h265l150 435h-265zM150 805h265v245h-265v-245z" />
<glyph unicode="&#x3c;" horiz-adv-x="1100" d="M0 430v190l900 380v-250l-573 -229l573 -221v-250z" />
<glyph unicode="=" horiz-adv-x="950" d="M0 260h750v210h-750v-210zM0 580h750v210h-750v-210z" />
<glyph unicode="&#x3e;" horiz-adv-x="1100" d="M0 50l900 380v190l-900 380v-250l573 -229l-573 -221v-250z" />
<glyph unicode="?" horiz-adv-x="1115" d="M0 1170v210q210 50 400 50q515 0 515 -390q0 -440 -500 -440v-230h-265v440h265q255 0 255 230q0 180 -270 180q-190 0 -400 -50zM150 0h265v245h-265v-245z" />
<glyph unicode="@" horiz-adv-x="2130" d="M-70 540q0 900 964 900q966 0 966 -900q0 -690 -447 -690q-301 0 -301 224q-127 -74 -312 -74q-395 0 -395 327q0 323 426 323q157 0 274 -20v69q0 141 -283 141q-162 0 -332 -50v210q170 50 332 50q548 0 548 -336v-596q0 -58 80 -58q145 0 145 480q0 690 -686 690 q-714 0 -714 -690q0 -710 645 -710v-210q-910 0 -910 920zM665 330q0 -120 160 -120q162 0 275 82v138q-100 20 -244 20q-191 0 -191 -120z" />
<glyph unicode="A" horiz-adv-x="1562" d="M0 0l607 1430h285l620 -1430h-285l-180 390h-458l91 230h297l-234 537l-471 -1157h-272z" />
<glyph unicode="B" horiz-adv-x="1310" d="M0 0v1430h670q408 0 408 -333q0 -244 -266 -349q284 -53 284 -325q0 -423 -447 -423h-649zM265 230h373q176 0 176 180q0 223 -263 223h-80v171q330 55 330 276q0 120 -148 120h-388v-970z" />
<glyph unicode="C" horiz-adv-x="1390" d="M0 735q0 -745 770 -745q235 0 420 70v240q-185 -80 -400 -80q-515 0 -515 515q0 475 515 475q215 0 400 -80v240q-185 70 -420 70q-770 0 -770 -705z" />
<glyph unicode="D" horiz-adv-x="1540" d="M0 0v1430h620q670 0 670 -676q0 -754 -670 -754h-620zM265 230h315q445 0 445 524q0 446 -445 446h-315v-970z" />
<glyph unicode="E" horiz-adv-x="1238" d="M0 0h953v230h-693v375h645v237h-642v360h676v228h-939v-1430z" />
<glyph unicode="F" horiz-adv-x="1224" d="M0 0h260v605h645v237h-642v360h676v228h-939v-1430z" />
<glyph unicode="G" horiz-adv-x="1390" d="M0 735q0 -745 757 -745q260 0 433 76v594h-265v-416q-92 -24 -164 -24q-486 0 -486 515q0 475 515 475q215 0 400 -80v240q-185 70 -420 70q-770 0 -770 -705z" />
<glyph unicode="H" horiz-adv-x="1535" d="M0 0v1430h265v-590h705v590h265v-1430h-265v610h-705v-610h-265z" />
<glyph unicode="I" horiz-adv-x="565" d="M0 0h265v1430h-265v-1430z" />
<glyph unicode="J" horiz-adv-x="740" d="M-300 0q565 0 565 412v1018h-265v-1018q0 -182 -300 -182v-230z" />
<glyph unicode="K" horiz-adv-x="1450" d="M0 0h265v1430h-265v-1430zM345 668l583 -668h367l-714 763l630 667h-324l-542 -590v-172z" />
<glyph unicode="L" horiz-adv-x="1183" d="M0 0h933v230h-668v1200h-265v-1430z" />
<glyph unicode="M" horiz-adv-x="1800" d="M0 0v1430h275l485 -1085l475 1085h265v-1430h-245v996l-388 -996h-226l-396 996v-996h-245z" />
<glyph unicode="N" horiz-adv-x="1615" d="M0 0v1430h265l795 -1022v1022h255v-1430h-265l-795 1044v-1044h-255z" />
<glyph unicode="O" d="M0 713q0 727 718 727q707 0 707 -727q0 -723 -707 -723q-686 0 -718 723zM275 719q0 -499 443 -499q432 0 432 499q0 491 -432 491q-443 0 -443 -491z" />
<glyph unicode="P" horiz-adv-x="1243" d="M0 0v1430h670q408 0 408 -363q0 -427 -589 -519l-38 236q350 65 350 275q0 138 -148 138h-388v-1197h-265z" />
<glyph unicode="Q" d="M0 713q0 727 718 727q707 0 707 -727q0 -598 -445 -706l232 -270l-209 -159l-325 412q-646 0 -678 723zM275 719q0 -499 443 -499q432 0 432 499q0 491 -432 491q-443 0 -443 -491z" />
<glyph unicode="R" horiz-adv-x="1375" d="M0 2v1428h650q438 0 438 -383q0 -259 -341 -429l453 -618h-344l-435 623v121q390 65 390 295q0 158 -178 158h-363v-1195h-270z" />
<glyph unicode="S" horiz-adv-x="1310" d="M-30 1000q0 440 625 440q240 0 455 -70v-240q-215 80 -455 80q-360 0 -360 -210q0 -160 174 -160h244q467 0 467 -400q0 -450 -594 -450q-271 0 -486 70v240q215 -80 486 -80q329 0 329 220q0 160 -202 160h-244q-439 0 -439 400z" />
<glyph unicode="T" horiz-adv-x="1085" d="M0 1200h410v-1200h265v1200h410v230h-1085v-230z" />
<glyph unicode="U" horiz-adv-x="1530" d="M0 562v868h265v-868q0 -342 350 -342t350 342v868h265v-868q0 -572 -615 -572t-615 572z" />
<glyph unicode="V" horiz-adv-x="1512" d="M0 1430h315l443 -1095l442 1095h312l-627 -1430h-285z" />
<glyph unicode="W" horiz-adv-x="1820" d="M0 1430h259l183 -997l352 997h255l328 -957l192 957h251l-269 -1430h-252l-393 1122l-422 -1122h-249z" />
<glyph unicode="X" horiz-adv-x="1502" d="M0 0l1125 1430h335l-1125 -1430h-335zM0 1430h335l1125 -1430h-335z" />
<glyph unicode="Y" horiz-adv-x="1300" d="M-30 1430h285l402 -689l378 689h275l-526 -930v-500h-265v500z" />
<glyph unicode="Z" horiz-adv-x="1250" d="M0 0h1060v230h-761l761 970v230h-1040v-230h774l-794 -970v-230z" />
<glyph unicode="[" horiz-adv-x="680" d="M0 -380h530v210h-265v1390h265v210h-530v-1810z" />
<glyph unicode="\" horiz-adv-x="1060" d="M0 1430h285l725 -1430h-285z" />
<glyph unicode="]" horiz-adv-x="680" d="M0 -170v-210h530v1810h-530v-210h265v-1390h-265z" />
<glyph unicode="^" horiz-adv-x="1050" d="M0 700l400 730h150l400 -730h-230l-249 473l-241 -473h-230z" />
<glyph unicode="_" horiz-adv-x="1050" d="M0 0v-210h1000v210h-1000z" />
<glyph unicode="`" horiz-adv-x="400" d="M0 1325v210l400 -150v-210z" />
<glyph unicode="a" horiz-adv-x="1165" d="M0 327q0 323 456 323q137 0 244 -20v69q0 141 -273 141q-172 0 -342 -50v210q170 50 342 50q538 0 538 -346v-704h-134l-114 74q-137 -74 -292 -74q-425 0 -425 327zM265 330q0 -120 160 -120q162 0 275 82v138q-100 20 -244 20q-191 0 -191 -120z" />
<glyph unicode="b" horiz-adv-x="1183" d="M0 43q249 -43 465 -43q533 0 533 546q0 504 -488 504q-126 0 -245 -50v430h-265v-1387zM265 243v533q110 54 244 54q227 0 227 -277q0 -339 -260 -339q-120 0 -211 29z" />
<glyph unicode="c" horiz-adv-x="980" d="M0 545q0 -545 580 -545q160 0 290 30v210q-130 -30 -270 -30q-335 0 -335 335q0 295 335 295q140 0 270 -30v210q-130 30 -290 30q-580 0 -580 -505z" />
<glyph unicode="d" horiz-adv-x="1220" d="M0 546q0 504 508 504q136 0 247 -50v430h265v-1367q-241 -63 -491 -63q-529 0 -529 546zM262 553q0 -329 247 -329q144 0 246 39v513q-102 54 -246 54q-247 0 -247 -277z" />
<glyph unicode="e" horiz-adv-x="1086" d="M0 537q0 513 523 513q443 0 443 -452q0 -81 -14 -176h-687q0 -212 346 -212q159 0 318 30v-210q-139 -30 -358 -30q-571 0 -571 537zM265 616h438q1 13 1 26q0 200 -211 200q-210 0 -228 -226z" />
<glyph unicode="f" horiz-adv-x="741" d="M0 -5v1106q0 381 472 381q129 0 234 -40v-210q-99 40 -235 40q-206 0 -206 -222h315v-210h-315v-841z" />
<glyph unicode="g" horiz-adv-x="1217" d="M0 531q0 -511 498 -511q136 0 254 50q0 -240 -296 -240q-193 0 -346 50v-210q150 -50 344 -50q563 0 563 380v1007q-259 43 -442 43q-575 0 -575 -519zM262 533q0 303 285 303q140 0 205 -24v-518q-109 -54 -253 -54q-237 0 -237 293z" />
<glyph unicode="h" horiz-adv-x="1235" d="M0 0v1430h265v-494q164 114 357 114q363 0 363 -391v-659h-265v662q0 174 -173 174q-139 0 -282 -133v-703h-265z" />
<glyph unicode="i" horiz-adv-x="515" d="M0 0v1050h265v-1050h-265zM0 1220v210h265v-210h-265z" />
<glyph unicode="j" horiz-adv-x="515" d="M-125 -293l208 -145q182 200 182 518v970h-265v-970q0 -238 -125 -373zM0 1220h265v210h-265v-210z" />
<glyph unicode="k" horiz-adv-x="1221" d="M0 0v1430h265v-462q163 82 363 82q382 0 382 -333q0 -190 -280 -304l316 -413h-314l-334 445v83q347 31 347 190q0 122 -170 122q-153 0 -310 -94v-746h-265z" />
<glyph unicode="l" horiz-adv-x="515" d="M0 0h265v1430h-265v-1430z" />
<glyph unicode="m" horiz-adv-x="1835" d="M0 0v1050h205l31 -132q181 132 359 132q198 0 281 -144q201 144 377 144q332 0 332 -399v-651h-265v661q0 175 -148 175q-118 0 -247 -136v-700h-265v658q0 178 -146 178q-126 0 -249 -136v-700h-265z" />
<glyph unicode="n" horiz-adv-x="1235" d="M0 0v1050h205l33 -134q191 134 384 134q363 0 363 -391v-659h-265v662q0 174 -173 174q-139 0 -282 -133v-703h-265z" />
<glyph unicode="o" horiz-adv-x="1180" d="M0 525q0 535 530 535t530 -535q0 -534 -530 -534q-528 0 -530 534zM265 529q0 -329 265 -329t265 329q0 321 -265 321t-265 -321z" />
<glyph unicode="p" horiz-adv-x="1202" d="M-80 -380v1387q209 43 462 43q555 0 555 -499q0 -551 -508 -551q-126 0 -244 50v-430h-265zM185 274q109 -54 243 -54q247 0 247 333q0 283 -282 283q-133 0 -208 -14v-548z" />
<glyph unicode="q" horiz-adv-x="1217" d="M0 531q0 -531 498 -531q136 0 254 50v-430h265v1387q-259 43 -472 43q-545 0 -545 -519zM262 533q0 303 265 303q130 0 225 -24v-538q-109 -54 -253 -54q-237 0 -237 313z" />
<glyph unicode="r" horiz-adv-x="680" d="M0 0v1050h205l33 -134q138 134 292 134v-214q-148 0 -265 -133v-703h-265z" />
<glyph unicode="s" horiz-adv-x="1025" d="M-20 730q0 330 467 330q198 0 373 -60v-220q-175 70 -380 70q-215 0 -215 -110q0 -100 125 -100h170q350 0 350 -320q0 -330 -446 -330q-219 0 -394 60v220q175 -70 404 -70q171 0 171 110q0 100 -115 100h-190q-320 0 -320 320z" />
<glyph unicode="t" horiz-adv-x="680" d="M0 283v937h196l40 -170h244v-210h-215v-483q0 -147 127 -147h88v-210h-216q-264 0 -264 283z" />
<glyph unicode="u" horiz-adv-x="1235" d="M0 391v659h265v-662q0 -174 172 -174q139 0 283 133v703h265v-1050h-207l-32 134q-191 -134 -384 -134q-362 0 -362 391z" />
<glyph unicode="v" horiz-adv-x="1080" d="M0 1050h280l255 -734l265 734h280l-427 -1050h-252z" />
<glyph unicode="w" horiz-adv-x="1599" d="M1 1050h267l156 -711l233 711h227l252 -711l138 711h276l-284 -1050h-249l-247 725l-250 -725h-253z" />
<glyph unicode="x" horiz-adv-x="1080" d="M0 0l785 1050h295l-785 -1050h-295zM0 1050h295l785 -1050h-295z" />
<glyph unicode="y" horiz-adv-x="1081" d="M0 1050h281l265 -756l259 756h276l-436 -1081q-116 -286 -371 -407l-128 181q176 77 256 251z" />
<glyph unicode="z" horiz-adv-x="990" d="M0 0v200l545 640h-525v210h810v-210l-537 -640h517v-200h-810z" />
<glyph unicode="{" horiz-adv-x="755" d="M0 410q210 0 210 -312q0 -302 130 -478h265q-130 176 -130 478q0 352 -250 427q250 75 250 427q0 302 130 478h-265q-130 -176 -130 -478q0 -312 -210 -312v-230z" />
<glyph unicode="|" horiz-adv-x="565" d="M0 -380h265v1810h-265v-1810z" />
<glyph unicode="}" horiz-adv-x="755" d="M0 -380h265q130 176 130 478q0 312 210 312v230q-210 0 -210 312q0 302 -130 478h-265q130 -176 130 -478q0 -352 170 -427q-170 -75 -170 -427q0 -302 -130 -478z" />
<glyph unicode="~" horiz-adv-x="950" d="M0 400v210q105 110 365 20t385 20v-210q-105 -110 -365 -20t-385 -20z" />
<glyph unicode="&#xa1;" horiz-adv-x="565" d="M0 -380v1060h265v-1060h-265zM0 805v245h265v-245h-265z" />
<glyph unicode="&#xa2;" horiz-adv-x="1050" d="M0 735q0 451 410 505v190h255v-190q88 -1 185 -30v-210q-130 30 -260 30q-325 0 -325 -295q0 -335 325 -335q130 0 260 30v-210q-77 -25 -185 -30v-190h-255v190q-410 52 -410 545z" />
<glyph unicode="&#xa3;" horiz-adv-x="1217" d="M65 -30v212q186 75 186 231q0 117 -77 291t-77 323q0 413 558 413q270 0 427 -100v-240q-158 130 -434 130q-274 0 -274 -201q0 -144 35 -199h386v-210h-314q39 -104 39 -204q0 -137 -64 -178q92 18 261.5 -39t364.5 81v-230q-188 -131 -485.5 -56.5t-531.5 -23.5z" />
<glyph unicode="&#xa4;" horiz-adv-x="1139" d="M0 173l116 120q-57 103 -57 232q0 137 57 231l-116 120l109 112l125 -121q108 68 242 68q124 0 225 -68l128 121l110 -112l-118 -120q58 -83 58 -231q0 -139 -68 -232l128 -120l-110 -112l-128 123q-108 -60 -233 -60q-124 0 -243 60l-116 -123zM222 529q0 -246 245 -246 t245 246q0 244 -245 244t-245 -244z" />
<glyph unicode="&#xa5;" horiz-adv-x="1250" d="M0 1430h275l292 -510l298 510h285l-413 -660h293v-210h-336v-111h336v-210h-336v-239h-265v239h-309v210h309v111h-309v210h267z" />
<glyph unicode="&#xa6;" horiz-adv-x="201" />
<glyph unicode="&#xa7;" horiz-adv-x="1090" d="M0 700q0 158 131 216q-131 60 -131 224q0 300 467 300q198 0 373 -50v-220q-175 60 -373 60q-222 0 -222 -90q0 -100 155 -100h70q420 0 420 -307q0 -150 -111 -222q111 -54 111 -221q0 -300 -476 -300q-189 0 -364 50v220q175 -60 364 -60q211 0 211 90q0 100 -155 100 h-70q-400 0 -400 310zM245 717q0 -119 155 -119h70q155 0 155 106q0 127 -155 127h-70q-155 0 -155 -114z" />
<glyph unicode="&#xa8;" horiz-adv-x="555" d="M0 1240v190h215v-190h-215zM340 1240v190h215v-190h-215z" />
<glyph unicode="&#xa9;" horiz-adv-x="1163" d="M0 1023q0 427 430 427q433 0 433 -427q0 -415 -433 -415q-418 0 -430 415zM73 1025q0 -361 357 -361q360 0 360 361q0 369 -360 369q-357 0 -357 -369zM172 1032q0 -287 289 -287q83 0 154 23v62q-71 -27 -146 -27q-226 0 -226 229q0 213 226 213q75 0 146 -27v62 q-71 23 -154 23q-289 0 -289 -271z" />
<glyph unicode="&#xaa;" horiz-adv-x="576" />
<glyph unicode="&#xab;" horiz-adv-x="1079" d="M0 525l258 -375h272l-258 375l258 375h-272zM449 525l258 -375h272l-258 375l258 375h-272z" />
<glyph unicode="&#xac;" horiz-adv-x="1395" />
<glyph unicode="&#xad;" horiz-adv-x="700" d="M0 420v210h500v-210h-500z" />
<glyph unicode="&#xae;" horiz-adv-x="1163" d="M0 1023q0 427 430 427q433 0 433 -427q0 -415 -433 -415q-418 0 -430 415zM73 1025q0 -361 357 -361q360 0 360 361q0 369 -360 369q-357 0 -357 -369zM254 756v536h229q153 0 153 -128q0 -105 -150 -155l184 -253h-91l-171 241v45q154 25 154 119q0 74 -86 74h-153v-479 h-69z" />
<glyph unicode="&#xaf;" horiz-adv-x="360" />
<glyph unicode="&#xb0;" horiz-adv-x="872" d="M0 1110q0 320 338 320q334 0 334 -320q0 -319 -334 -319q-338 0 -338 319zM190 1112q0 -147 148 -147q144 0 144 147q0 144 -144 144q-148 0 -148 -144z" />
<glyph unicode="&#xb1;" horiz-adv-x="636" />
<glyph unicode="&#xb2;" horiz-adv-x="300" />
<glyph unicode="&#xb3;" horiz-adv-x="300" />
<glyph unicode="&#xb4;" horiz-adv-x="400" d="M0 1175v210l400 150v-210z" />
<glyph unicode="&#xb6;" horiz-adv-x="953" d="M0 986q0 444 443 444h510v-90h-150v-1774h-100v1774h-160v-1774h-100v972q-443 0 -443 448z" />
<glyph unicode="&#xb7;" horiz-adv-x="450" d="M0 525q0 125 125 125t125 -125t-125 -125t-125 125z" />
<glyph unicode="&#xb8;" horiz-adv-x="487" d="M0 -244v-128q108 -50 216 -50q271 0 271 183q0 162 -214 162l81 152h-165l-131 -270h183q83 0 83 -44q0 -55 -108 -55t-216 50z" />
<glyph unicode="&#xb9;" horiz-adv-x="300" />
<glyph unicode="&#xba;" horiz-adv-x="451" d="M-70 540q0 900 964 900q966 0 966 -900q0 -690 -447 -690q-301 0 -301 224q-127 -74 -312 -74q-395 0 -395 487q0 543 512 543q275 0 453 -140v-772q0 -58 80 -58q145 0 145 480q0 690 -686 690q-714 0 -714 -690q0 -710 645 -710v-210q-910 0 -910 920zM665 490 q0 -280 160 -280q162 0 275 82v468q-90 50 -224 50q-211 0 -211 -320z" />
<glyph unicode="&#xbb;" horiz-adv-x="1079" d="M0 150h272l258 375l-258 375h-272l258 -375zM449 150h272l258 375l-258 375h-272l258 -375z" />
<glyph unicode="&#xbc;" horiz-adv-x="786" />
<glyph unicode="&#xbd;" horiz-adv-x="786" />
<glyph unicode="&#xbe;" horiz-adv-x="786" />
<glyph unicode="&#xbf;" horiz-adv-x="1115" d="M0 -120q210 -50 400 -50q270 0 270 180q0 230 -255 230h-265v440h265v-230q500 0 500 -440q0 -390 -515 -390q-190 0 -400 50v210zM150 805h265v245h-265v-245z" />
<glyph unicode="&#xc0;" horiz-adv-x="1562" d="M0 0l607 1430h285l620 -1430h-285l-180 390h-458l91 230h297l-234 537l-471 -1157h-272zM547 1638v210l400 -150v-210z" />
<glyph unicode="&#xc1;" horiz-adv-x="1562" d="M0 0l607 1430h285l620 -1430h-285l-180 390h-458l91 230h297l-234 537l-471 -1157h-272zM547 1488v210l400 150v-210z" />
<glyph unicode="&#xc2;" horiz-adv-x="1562" d="M0 0l607 1430h285l620 -1430h-285l-180 390h-458l91 230h297l-234 537l-471 -1157h-272zM490 1574h180l70 130l70 -130h180l-175 260h-150z" />
<glyph unicode="&#xc3;" horiz-adv-x="1562" d="M0 0l607 1430h285l620 -1430h-285l-180 390h-458l91 230h297l-234 537l-471 -1157h-272zM495 1589v210q105 80 240 20t260 20v-210q-105 -80 -240 -20t-260 -20z" />
<glyph unicode="&#xc4;" horiz-adv-x="1562" d="M0 0l607 1430h285l620 -1430h-285l-180 390h-458l91 230h297l-234 537l-471 -1157h-272zM469 1599v190h215v-190h-215zM809 1599v190h215v-190h-215z" />
<glyph unicode="&#xc5;" horiz-adv-x="1562" d="M0 0l607 1430h285l620 -1430h-285l-180 390h-458l91 230h297l-234 537l-471 -1157h-272zM451 1566q0 270 288 270q294 0 294 -270q0 -279 -294 -279q-288 0 -288 279zM621 1568q0 -127 118 -127q124 0 124 127q0 114 -124 114q-118 0 -118 -114z" />
<glyph unicode="&#xc6;" horiz-adv-x="1885" d="M0 0l607 1430h1098v-230h-738l160 -360h543v-230h-444l166 -380h333v-230h-528l-460 1144l-220 -544h250l68 -210h-399l-154 -390h-282z" />
<glyph unicode="&#xc7;" horiz-adv-x="1390" d="M0 735q0 -745 770 -745q235 0 420 70v240q-185 -80 -400 -80q-515 0 -515 515q0 475 515 475q215 0 400 -80v240q-185 70 -420 70q-770 0 -770 -705zM483 -244v-128q108 -50 216 -50q271 0 271 183q0 162 -214 162l81 152h-165l-131 -270h183q83 0 83 -44q0 -55 -108 -55 t-216 50z" />
<glyph unicode="&#xc8;" horiz-adv-x="1238" d="M0 0h953v230h-693v375h645v237h-642v360h676v228h-939v-1430zM271 1638v210l400 -150v-210z" />
<glyph unicode="&#xc9;" horiz-adv-x="1238" d="M0 0h953v230h-693v375h645v237h-642v360h676v228h-939v-1430zM271 1488v210l400 150v-210z" />
<glyph unicode="&#xca;" horiz-adv-x="1238" d="M0 0h953v230h-693v375h645v237h-642v360h676v228h-939v-1430zM226 1574h180l70 130l70 -130h180l-175 260h-150z" />
<glyph unicode="&#xcb;" horiz-adv-x="1238" d="M0 0h953v230h-693v375h645v237h-642v360h676v228h-939v-1430zM182 1599v190h215v-190h-215zM522 1599v190h215v-190h-215z" />
<glyph unicode="&#xcc;" horiz-adv-x="565" d="M-65 1638v210l400 -150v-210zM0 0v1430h265v-1430h-265z" />
<glyph unicode="&#xcd;" horiz-adv-x="565" d="M-65 1488v210l400 150v-210zM0 0v1430h265v-1430h-265z" />
<glyph unicode="&#xce;" horiz-adv-x="565" d="M-115 1574l175 260h150l175 -260h-180l-70 130l-70 -130h-180zM0 0v1430h265v-1430h-265z" />
<glyph unicode="&#xcf;" horiz-adv-x="515" d="M-144 1599v190h214v-190h-214zM0 0v1430h265v-1430h-265zM196 1599v190h214v-190h-214z" />
<glyph unicode="&#xd0;" horiz-adv-x="663" />
<glyph unicode="&#xd1;" horiz-adv-x="1615" d="M0 0v1430h265l795 -1022v1022h255v-1430h-265l-795 1044v-1044h-255zM414 1589v210q105 80 240 20t260 20v-210q-105 -80 -240 -20t-260 -20z" />
<glyph unicode="&#xd2;" d="M0 713q0 727 718 727q707 0 707 -727q0 -723 -707 -723q-686 0 -718 723zM275 719q0 -499 443 -499q432 0 432 499q0 491 -432 491q-443 0 -443 -491zM506 1638v210l400 -150v-210z" />
<glyph unicode="&#xd3;" d="M0 713q0 727 718 727q707 0 707 -727q0 -723 -707 -723q-686 0 -718 723zM275 719q0 -499 443 -499q432 0 432 499q0 491 -432 491q-443 0 -443 -491zM506 1488v210l400 150v-210z" />
<glyph unicode="&#xd4;" d="M0 713q0 727 718 727q707 0 707 -727q0 -723 -707 -723q-686 0 -718 723zM275 719q0 -499 443 -499q432 0 432 499q0 491 -432 491q-443 0 -443 -491zM476 1574h180l70 130l70 -130h180l-175 260h-150z" />
<glyph unicode="&#xd5;" d="M0 713q0 727 718 727q707 0 707 -727q0 -723 -707 -723q-686 0 -718 723zM275 719q0 -499 443 -499q432 0 432 499q0 491 -432 491q-443 0 -443 -491zM460 1589v210q105 80 240 20t260 20v-210q-105 -80 -240 -20t-260 -20z" />
<glyph unicode="&#xd6;" d="M0 713q0 727 718 727q707 0 707 -727q0 -723 -707 -723q-686 0 -718 723zM275 719q0 -499 443 -499q432 0 432 499q0 491 -432 491q-443 0 -443 -491zM424 1599v190h215v-190h-215zM764 1599v190h215v-190h-215z" />
<glyph unicode="&#xd7;" horiz-adv-x="636" />
<glyph unicode="&#xd8;" d="M0 713q0 727 718 727q707 0 707 -727q0 -723 -707 -723q-686 0 -718 723zM38 0l1083 1430h258l-1084 -1430h-257zM275 719q0 -499 443 -499q432 0 432 499q0 491 -432 491q-443 0 -443 -491z" />
<glyph unicode="&#xd9;" horiz-adv-x="1530" d="M0 562v868h265v-868q0 -342 350 -342t350 342v868h265v-868q0 -572 -615 -572t-615 572zM416 1638v210l400 -150v-210z" />
<glyph unicode="&#xda;" horiz-adv-x="1530" d="M0 562v868h265v-868q0 -342 350 -342t350 342v868h265v-868q0 -572 -615 -572t-615 572zM416 1488v210l400 150v-210z" />
<glyph unicode="&#xdb;" horiz-adv-x="1530" d="M0 562v868h265v-868q0 -342 350 -342t350 342v868h265v-868q0 -572 -615 -572t-615 572zM365 1574h180l70 130l70 -130h180l-175 260h-150z" />
<glyph unicode="&#xdc;" horiz-adv-x="1530" d="M0 562v868h265v-868q0 -342 350 -342t350 342v868h265v-868q0 -572 -615 -572t-615 572zM342 1599v190h215v-190h-215zM682 1599v190h215v-190h-215z" />
<glyph unicode="&#xdd;" horiz-adv-x="526" />
<glyph unicode="&#xde;" horiz-adv-x="576" />
<glyph unicode="&#xdf;" horiz-adv-x="1216" d="M0 0v959q0 468 504 468q470 0 470 -397v-135q-304 -53 -304 -198q0 -71 185.5 -127.5t185.5 -247.5q0 -322 -424 -322h-212v210h214q147 0 147 92q0 81 -175.5 137.5t-175.5 254.5q0 208 288 336q0 187 -206 187q-232 0 -232 -261v-956h-265z" />
<glyph unicode="&#xe0;" horiz-adv-x="1165" d="M0 327q0 323 456 323q137 0 244 -20v69q0 141 -273 141q-172 0 -342 -50v210q170 50 342 50q538 0 538 -346v-704h-134l-114 74q-137 -74 -292 -74q-425 0 -425 327zM265 330q0 -120 160 -120q162 0 275 82v138q-100 20 -244 20q-191 0 -191 -120zM293 1325v210l400 -150 v-210z" />
<glyph unicode="&#xe1;" horiz-adv-x="1165" d="M0 327q0 323 456 323q137 0 244 -20v69q0 141 -273 141q-172 0 -342 -50v210q170 50 342 50q538 0 538 -346v-704h-134l-114 74q-137 -74 -292 -74q-425 0 -425 327zM265 330q0 -120 160 -120q162 0 275 82v138q-100 20 -244 20q-191 0 -191 -120zM293 1175v210l400 150 v-210z" />
<glyph unicode="&#xe2;" horiz-adv-x="1165" d="M0 327q0 323 456 323q137 0 244 -20v69q0 141 -273 141q-172 0 -342 -50v210q170 50 342 50q538 0 538 -346v-704h-134l-114 74q-137 -74 -292 -74q-425 0 -425 327zM264 1278h180l70 130l70 -130h180l-175 260h-150zM265 330q0 -120 160 -120q162 0 275 82v138 q-100 20 -244 20q-191 0 -191 -120z" />
<glyph unicode="&#xe3;" horiz-adv-x="1165" d="M0 327q0 323 456 323q137 0 244 -20v69q0 141 -273 141q-172 0 -342 -50v210q170 50 342 50q538 0 538 -346v-704h-134l-114 74q-137 -74 -292 -74q-425 0 -425 327zM244 1229v210q105 80 240 20t260 20v-210q-105 -80 -240 -20t-260 -20zM265 330q0 -120 160 -120 q162 0 275 82v138q-100 20 -244 20q-191 0 -191 -120z" />
<glyph unicode="&#xe4;" horiz-adv-x="1165" d="M0 327q0 323 456 323q137 0 244 -20v69q0 141 -273 141q-172 0 -342 -50v210q170 50 342 50q538 0 538 -346v-704h-134l-114 74q-137 -74 -292 -74q-425 0 -425 327zM238 1240v190h215v-190h-215zM265 330q0 -120 160 -120q162 0 275 82v138q-100 20 -244 20 q-191 0 -191 -120zM578 1240v190h215v-190h-215z" />
<glyph unicode="&#xe5;" horiz-adv-x="1165" d="M0 327q0 323 456 323q137 0 244 -20v69q0 141 -273 141q-172 0 -342 -50v210q170 50 342 50q538 0 538 -346v-704h-134l-114 74q-137 -74 -292 -74q-425 0 -425 327zM187 1529q0 270 288 270q294 0 294 -270q0 -279 -294 -279q-288 0 -288 279zM265 330q0 -120 160 -120 q162 0 275 82v138q-100 20 -244 20q-191 0 -191 -120zM357 1531q0 -127 118 -127q124 0 124 127q0 114 -124 114q-118 0 -118 -114z" />
<glyph unicode="&#xe6;" horiz-adv-x="1745" d="M0 329q0 331 437 331q104 0 226 -22q0 202 -242 202q-170 0 -332 -48v205q168 53 334 53q299 0 396 -136q127 136 382 136q488 0 394 -608h-667q0 -232 360 -232q148 0 285 29v-209q-146 -30 -341 -30q-275 0 -418 112q-193 -112 -398 -112q-416 0 -416 329zM265 330 q0 -120 150 -120q152 0 245 82v138q-110 20 -224 20q-171 0 -171 -120zM926 656h438q-6 184 -190 184q-230 0 -248 -184z" />
<glyph unicode="&#xe7;" horiz-adv-x="980" d="M0 545q0 -545 580 -545q160 0 290 30v210q-130 -30 -270 -30q-335 0 -335 335q0 295 335 295q140 0 270 -30v210q-130 30 -290 30q-580 0 -580 -505zM298 -244v-128q108 -50 216 -50q271 0 271 173q0 172 -214 172l81 151h-165l-131 -269h183q83 0 83 -54q0 -45 -108 -45 t-216 50z" />
<glyph unicode="&#xe8;" horiz-adv-x="1086" d="M0 537q0 513 523 513q522 0 429 -628h-687q0 -212 346 -212q159 0 318 30v-210q-139 -30 -358 -30q-571 0 -571 537zM265 616h438q14 226 -210 226q-210 0 -228 -226zM270 1325v210l400 -150v-210z" />
<glyph unicode="&#xe9;" horiz-adv-x="1086" d="M0 537q0 513 523 513q522 0 429 -628h-687q0 -212 346 -212q159 0 318 30v-210q-139 -30 -358 -30q-571 0 -571 537zM265 616h438q14 226 -210 226q-210 0 -228 -226zM270 1175v210l400 150v-210z" />
<glyph unicode="&#xea;" horiz-adv-x="1086" d="M0 537q0 513 523 513q522 0 429 -628h-687q0 -212 346 -212q159 0 318 30v-210q-139 -30 -358 -30q-571 0 -571 537zM231 1278h180l70 130l70 -130h180l-175 260h-150zM265 616h438q14 226 -210 226q-210 0 -228 -226z" />
<glyph unicode="&#xeb;" horiz-adv-x="1086" d="M0 537q0 513 523 513q522 0 429 -628h-687q0 -212 346 -212q159 0 318 30v-210q-139 -30 -358 -30q-571 0 -571 537zM204 1240v190h215v-190h-215zM265 616h438q14 226 -210 226q-210 0 -228 -226zM544 1240v190h215v-190h-215z" />
<glyph unicode="&#xec;" horiz-adv-x="515" d="M-65 1325v210l400 -150v-210zM0 0v1050h265v-1050h-265z" />
<glyph unicode="&#xed;" horiz-adv-x="515" d="M-65 1175v210l400 150v-210zM0 0v1050h265v-1050h-265z" />
<glyph unicode="&#xee;" horiz-adv-x="515" d="M-115 1278h180l70 130l70 -130h180l-175 260h-150zM0 0v1050h265v-1050h-265z" />
<glyph unicode="&#xef;" horiz-adv-x="515" d="M-145 1240v190h215v-190h-215zM0 0v1050h265v-1050h-265zM195 1240v190h215v-190h-215z" />
<glyph unicode="&#xf0;" horiz-adv-x="483" />
<glyph unicode="&#xf1;" horiz-adv-x="1235" d="M0 0v1050h205l33 -134q191 134 384 134q363 0 363 -391v-659h-265v662q0 174 -173 174q-139 0 -282 -133v-703h-265zM241 1229v210q105 80 240 20t260 20v-210q-105 -80 -240 -20t-260 -20z" />
<glyph unicode="&#xf2;" horiz-adv-x="1180" d="M0 525q0 535 530 535t530 -535q0 -534 -530 -534q-528 0 -530 534zM265 529q0 -329 265 -329t265 329q0 321 -265 321t-265 -321zM324 1325v210l400 -150v-210z" />
<glyph unicode="&#xf3;" horiz-adv-x="1180" d="M0 525q0 535 530 535t530 -535q0 -534 -530 -534q-528 0 -530 534zM265 529q0 -329 265 -329t265 329q0 321 -265 321t-265 -321zM324 1175v210l400 150v-210z" />
<glyph unicode="&#xf4;" horiz-adv-x="1180" d="M0 525q0 535 530 535t530 -535q0 -534 -530 -534q-528 0 -530 534zM265 529q0 -329 265 -329t265 329q0 321 -265 321t-265 -321zM278 1278h180l70 130l70 -130h180l-175 260h-150z" />
<glyph unicode="&#xf5;" horiz-adv-x="1180" d="M0 525q0 535 530 535t530 -535q0 -534 -530 -534q-528 0 -530 534zM265 529q0 -329 265 -329t265 329q0 321 -265 321t-265 -321zM277 1229v210q105 80 240 20t260 20v-210q-105 -80 -240 -20t-260 -20z" />
<glyph unicode="&#xf6;" horiz-adv-x="1180" d="M0 525q0 535 530 535t530 -535q0 -534 -530 -534q-528 0 -530 534zM248 1240v190h215v-190h-215zM265 529q0 -329 265 -329t265 329q0 321 -265 321t-265 -321zM588 1240v190h215v-190h-215z" />
<glyph unicode="&#xf7;" horiz-adv-x="985" d="M0 420h785v210h-785v-210zM280 150v190h225v-190h-225zM280 710v190h225v-190h-225z" />
<glyph unicode="&#xf8;" horiz-adv-x="1180" d="M-5 0l800 1050h258l-801 -1050h-257zM0 525q0 535 530 535t530 -535q0 -534 -530 -534q-528 0 -530 534zM265 529q0 -329 265 -329t265 329q0 321 -265 321t-265 -321z" />
<glyph unicode="&#xf9;" horiz-adv-x="1235" d="M0 391v659h265v-662q0 -174 172 -174q139 0 283 133v703h265v-1050h-207l-32 134q-191 -134 -384 -134q-362 0 -362 391zM294 1325v210l400 -150v-210z" />
<glyph unicode="&#xfa;" horiz-adv-x="1235" d="M0 391v659h265v-662q0 -174 172 -174q139 0 283 133v703h265v-1050h-207l-32 134q-191 -134 -384 -134q-362 0 -362 391zM294 1175v210l400 150v-210z" />
<glyph unicode="&#xfb;" horiz-adv-x="1235" d="M0 391v659h265v-662q0 -174 172 -174q139 0 283 133v703h265v-1050h-207l-32 134q-191 -134 -384 -134q-362 0 -362 391zM244 1278h180l70 130l70 -130h180l-175 260h-150z" />
<glyph unicode="&#xfc;" horiz-adv-x="1235" d="M0 391v659h265v-662q0 -174 172 -174q139 0 283 133v703h265v-1050h-207l-32 134q-191 -134 -384 -134q-362 0 -362 391zM220 1240v190h215v-190h-215zM560 1240v190h215v-190h-215z" />
<glyph unicode="&#xfd;" horiz-adv-x="393" />
<glyph unicode="&#xfe;" horiz-adv-x="348" />
<glyph unicode="&#xff;" horiz-adv-x="393" />
<glyph unicode="&#x152;" horiz-adv-x="2215" d="M0 713q0 717 718 717h1257v-230h-700q110 -112 140 -360h525v-230h-525q-21 -242 -131 -380h706v-230h-1272q-686 0 -718 713zM275 719q0 -489 443 -489q422 0 422 489q0 481 -422 481q-443 0 -443 -481z" />
<glyph unicode="&#x153;" horiz-adv-x="1837" d="M4 522q0 528 510 528q264 0 385 -169q118 169 387 169q517 0 420 -628h-663q0 -212 362 -212q147 0 279 28v-206q-137 -32 -333 -32q-322 0 -451 146q-115 -146 -386 -146q-489 0 -510 522zM265 529q0 -319 255 -319t255 319q0 311 -255 311t-255 -311zM1050 616h408 q14 226 -190 226q-200 0 -218 -226z" />
<glyph unicode="&#x178;" horiz-adv-x="526" />
<glyph unicode="&#x2c6;" horiz-adv-x="550" d="M0 1278h180l70 130l70 -130h180l-175 260h-150z" />
<glyph unicode="&#x2dc;" horiz-adv-x="700" d="M0 400v210q105 80 240 20t260 20v-210q-105 -80 -240 -20t-260 -20z" />
<glyph unicode="&#x2000;" horiz-adv-x="924" />
<glyph unicode="&#x2001;" horiz-adv-x="1848" />
<glyph unicode="&#x2002;" horiz-adv-x="924" />
<glyph unicode="&#x2003;" horiz-adv-x="1848" />
<glyph unicode="&#x2004;" horiz-adv-x="616" />
<glyph unicode="&#x2005;" horiz-adv-x="462" />
<glyph unicode="&#x2006;" horiz-adv-x="308" />
<glyph unicode="&#x2007;" horiz-adv-x="308" />
<glyph unicode="&#x2008;" horiz-adv-x="231" />
<glyph unicode="&#x2009;" horiz-adv-x="369" />
<glyph unicode="&#x200a;" horiz-adv-x="102" />
<glyph unicode="&#x2010;" horiz-adv-x="700" d="M0 420v210h500v-210h-500z" />
<glyph unicode="&#x2011;" horiz-adv-x="700" d="M0 420v210h500v-210h-500z" />
<glyph unicode="&#x2012;" horiz-adv-x="700" d="M0 420v210h500v-210h-500z" />
<glyph unicode="&#x2013;" horiz-adv-x="684" />
<glyph unicode="&#x2014;" horiz-adv-x="894" />
<glyph unicode="&#x2018;" horiz-adv-x="595" d="M-1 1430l150 -435h245l-150 435h-245z" />
<glyph unicode="&#x2019;" horiz-adv-x="595" d="M0 995h245l150 435h-245z" />
<glyph unicode="&#x201a;" horiz-adv-x="234" />
<glyph unicode="&#x201c;" horiz-adv-x="1025" d="M0 995h245l150 435h-245zM430 995h245l150 435h-245z" />
<glyph unicode="&#x201d;" horiz-adv-x="1025" d="M0 1430l150 -435h245l-150 435h-245zM430 1430l150 -435h245l-150 435h-245z" />
<glyph unicode="&#x201e;" horiz-adv-x="1025" d="M0 -250h245l150 435h-245zM430 -250h245l150 435h-245z" />
<glyph unicode="&#x2022;" horiz-adv-x="630" d="M0 725q0 215 215 215t215 -215t-215 -215t-215 215z" />
<glyph unicode="&#x2026;" horiz-adv-x="792" />
<glyph unicode="&#x202f;" horiz-adv-x="369" />
<glyph unicode="&#x2039;" horiz-adv-x="630" d="M0 525l258 -375h272l-258 375l258 375h-272z" />
<glyph unicode="&#x203a;" horiz-adv-x="630" d="M0 150h272l258 375l-258 375h-272l258 -375z" />
<glyph unicode="&#x205f;" horiz-adv-x="462" />
<glyph unicode="&#x20ac;" horiz-adv-x="1385" d="M0 735q0 -745 750 -745q215 0 400 60v240q-185 -70 -380 -70q-428 0 -485 272h673v210h-693v70h693v210h-673q67 228 485 228q195 0 380 -70v240q-185 60 -400 60q-750 0 -750 -705z" />
<glyph unicode="&#x2122;" horiz-adv-x="1606" d="M0 1359v71h511v-71h-212v-602h-87v602h-212zM600 757v673h110l248 -561l242 561h106v-673h-78v543l-239 -543h-69l-243 543v-543h-77z" />
<glyph unicode="&#xe000;" horiz-adv-x="1050" d="M0 0v1050h1050v-1050h-1050z" />
</font>
</defs>
</svg>
