<?xml version="1.0" standalone="no"?>
<!DOCTYPE svg PUBLIC "-//W3C//DTD SVG 1.1//EN" "http://www.w3.org/Graphics/SVG/1.1/DTD/svg11.dtd" >
<svg xmlns="http://www.w3.org/2000/svg">
<metadata></metadata>
<defs>
<font id="sansationlight" horiz-adv-x="405" >
<font-face units-per-em="2048" ascent="1638" descent="-410" />
<missing-glyph horiz-adv-x="485" />
<glyph horiz-adv-x="2048" />
<glyph horiz-adv-x="2048" />
<glyph unicode="&#xd;" horiz-adv-x="390" />
<glyph unicode=" "  horiz-adv-x="485" />
<glyph unicode="&#x09;" horiz-adv-x="485" />
<glyph unicode="&#xa0;" horiz-adv-x="485" />
<glyph unicode="!" d="M0 0v105h105v-105h-105zM0 370v1060h105v-1060h-105z" />
<glyph unicode="&#x22;" horiz-adv-x="605" d="M0 1430l30 -435h55l30 435h-115zM290 1430l30 -435h55l30 435h-115z" />
<glyph unicode="#" horiz-adv-x="1883" d="M10 374l20 94h392l109 438h-401l20 94h402l110 425h100l-110 -425h458l112 430h100l-111 -430h482l-20 -94h-482l-109 -438h491l-20 -94h-492l-100 -379h-100l100 379h-458l-100 -379h-100l99 379h-392zM523 468h457l110 438h-457z" />
<glyph unicode="$" horiz-adv-x="1050" d="M-20 940q0 280 390 300v190h95v-190q190 -10 315 -50v-100q-175 60 -343 60q-352 0 -352 -210q0 -170 245 -170h150q350 0 350 -280t-365 -300v-190h-95v190q-215 10 -340 50v100q175 -60 364 -60q311 0 311 210q0 170 -225 170h-150q-350 0 -350 280z" />
<glyph unicode="%" horiz-adv-x="1342" d="M0 0l1017 1430h125l-1017 -1430h-125zM0 1180q0 260 278 260q274 0 274 -260q0 -259 -274 -259q-278 0 -278 259zM100 1182q0 -177 178 -177q174 0 174 177q0 174 -174 174q-178 0 -178 -174zM590 249q0 260 278 260q274 0 274 -260q0 -259 -274 -259q-278 0 -278 259z M690 251q0 -177 178 -177q174 0 174 177q0 174 -174 174q-178 0 -178 -174z" />
<glyph unicode="&#x26;" horiz-adv-x="1275" d="M0 394q0 -397 495 -397q518 0 518 493v190h162v90h-172l-22 172h-73v-172h-468q-335 0 -335 280q0 290 408 290q172 0 357 -50v90q-175 50 -360 50q-510 0 -510 -385q0 -253 223 -318q-223 -86 -223 -333zM105 399q0 281 337 281h466v-188q0 -402 -422 -402 q-381 0 -381 309z" />
<glyph unicode="'" horiz-adv-x="315" d="M0 1430l30 -435h55l30 435h-115z" />
<glyph unicode="(" horiz-adv-x="480" d="M0 525q0 -453 200 -905h105q-200 452 -200 905t200 905h-105q-200 -452 -200 -905z" />
<glyph unicode=")" horiz-adv-x="480" d="M-1 -380h105q200 452 200 905t-200 905h-105q200 -452 200 -905t-200 -905z" />
<glyph unicode="*" horiz-adv-x="810" d="M-1 1150l48 150l211 -103l-31 233h156l-30 -232l209 101l48 -147l-228 -43l159 -170l-123 -92l-113 205l-113 -204l-124 89l161 171z" />
<glyph unicode="+" horiz-adv-x="950" d="M0 480h330v-330h100v330h320v90h-320v330h-100v-330h-330v-90z" />
<glyph unicode="," horiz-adv-x="455" d="M0 -250h105l150 435h-105z" />
<glyph unicode="-" horiz-adv-x="700" d="M0 480v90h500v-90h-500z" />
<glyph unicode="." horiz-adv-x="335" d="M0 0h135v125h-135v-125z" />
<glyph unicode="/" horiz-adv-x="965" d="M0 0l725 1430h115l-725 -1430h-115z" />
<glyph unicode="0" horiz-adv-x="1375" d="M0 713q0 727 618 727q607 0 607 -727q0 -723 -607 -723q-586 0 -618 723zM115 719q0 -639 503 -639q492 0 492 639q0 631 -492 631q-503 0 -503 -631z" />
<glyph unicode="1" horiz-adv-x="585" d="M-150 1301h150v-1301h105v1430l-255 -70v-59z" />
<glyph unicode="2" horiz-adv-x="1180" d="M0 0v90q875 607 875 930q0 330 -420 330q-220 0 -415 -110v100q195 100 415 100q525 0 525 -420q0 -370 -824 -930h824v-90h-980z" />
<glyph unicode="3" horiz-adv-x="1115" d="M0 50v100q200 -70 400 -70q410 0 410 320q0 280 -332 280h-328v90h325q335 0 335 280q0 300 -410 300q-200 0 -400 -70v100q200 60 400 60q515 0 515 -390q0 -256 -238 -325q238 -65 238 -325q0 -410 -515 -410q-200 0 -400 60z" />
<glyph unicode="4" horiz-adv-x="1125" d="M1 420v90l395 920h104l-386 -920h609v588h105v-588l148 -46v-44h-148v-420h-105v420h-722z" />
<glyph unicode="5" horiz-adv-x="1175" d="M0 730l50 700h854v-80h-766l-44 -512q197 22 336 22q570 0 570 -400q0 -470 -550 -470q-230 0 -430 60v100q200 -70 430 -70q445 0 445 380q0 320 -465 320q-235 0 -430 -50z" />
<glyph unicode="6" horiz-adv-x="1240" d="M0 530q0 466 508 943l66 -77q-292 -246 -424 -589q191 63 366 63q524 0 524 -400q0 -480 -553 -480q-487 0 -487 540zM95 546q0 -466 401 -466q443 0 443 390q0 310 -432 310q-204 0 -384 -68q-28 -100 -28 -166z" />
<glyph unicode="7" horiz-adv-x="1125" d="M0 1340v90h950v-90l-572 -1340h-131l592 1340h-839z" />
<glyph unicode="8" horiz-adv-x="1240" d="M0 424q0 243 252 321q-212 85 -212 333q0 366 480 366t480 -366q0 -248 -217 -333q257 -78 257 -321q0 -434 -520 -434t-520 434zM105 418q0 -338 420 -338q410 0 410 338q0 282 -423 282q-407 0 -407 -282zM145 1058q0 -268 380 -268q370 0 370 268q0 292 -383 292 q-367 0 -367 -292z" />
<glyph unicode="9" horiz-adv-x="1190" d="M0 964q0 480 533 480q507 0 507 -540q0 -466 -508 -943l-66 77q312 276 414 579q-203 -93 -386 -93q-494 0 -494 440zM101 964q0 -340 392 -340q264 0 424 119q18 79 18 145q0 466 -411 466q-423 0 -423 -390z" />
<glyph unicode=":" horiz-adv-x="385" d="M0 0h135v125h-135v-125zM0 925h135v125h-135v-125z" />
<glyph unicode=";" horiz-adv-x="525" d="M0 -250h105l150 435h-105zM140 925h135v125h-135v-125z" />
<glyph unicode="&#x3c;" horiz-adv-x="1100" d="M0 470v110l900 420v-110l-813 -369l813 -361v-110z" />
<glyph unicode="=" horiz-adv-x="950" d="M0 330h750v90h-750v-90zM0 630h750v90h-750v-90z" />
<glyph unicode="&#x3e;" horiz-adv-x="1100" d="M0 50l900 420v110l-900 420v-110l813 -369l-813 -361v-110z" />
<glyph unicode="?" horiz-adv-x="1115" d="M0 1290v90q210 50 400 50q515 0 515 -390t-497 -390h-123v-280h-105v370h225q395 0 395 300t-410 300q-190 0 -400 -50zM190 0h105v105h-105v-105z" />
<glyph unicode="@" horiz-adv-x="2150" d="M-30 540q0 900 924 900q926 0 926 -900q0 -690 -427 -690q-161 0 -161 224q-207 -74 -392 -74q-395 0 -395 327q0 293 426 293q157 0 354 -20v129q0 231 -363 231q-162 0 -332 -50v90q170 50 332 50q468 0 468 -336v-626q0 -148 100 -148q285 0 285 600q0 810 -806 810 q-834 0 -834 -810q0 -830 765 -830v-90q-870 0 -870 920zM550 330q0 -240 290 -240q192 0 385 82v338q-190 20 -354 20q-321 0 -321 -200z" />
<glyph unicode="A" horiz-adv-x="1472" d="M0 0l647 1430h125l650 -1430h-125l-210 480h-608l31 90h537l-344 778l-591 -1348h-112z" />
<glyph unicode="B" horiz-adv-x="1310" d="M0 0v1430h610q408 0 408 -333q0 -244 -296 -349q314 -53 314 -335q0 -413 -447 -413h-589zM105 90h473q346 0 346 320q0 283 -433 283h-80v71q500 45 500 326q0 250 -308 250h-498v-1250z" />
<glyph unicode="C" horiz-adv-x="1385" d="M0 735q0 -745 750 -745q205 0 400 60v90q-195 -60 -380 -60q-665 0 -665 655q0 615 665 615q185 0 380 -60v90q-195 60 -400 60q-750 0 -750 -705z" />
<glyph unicode="D" horiz-adv-x="1500" d="M0 0v1430h580q670 0 670 -676q0 -754 -670 -754h-580zM105 90h465q565 0 565 664q0 586 -565 586h-465v-1250z" />
<glyph unicode="E" horiz-adv-x="1228" d="M0 0h953v90h-848v590h800v90h-800v570h834v90h-939v-1430z" />
<glyph unicode="F" horiz-adv-x="1239" d="M0 0h105v680h800v90h-800v570h834v90h-939v-1430z" />
<glyph unicode="G" horiz-adv-x="1385" d="M0 735q0 -745 767 -745q200 0 383 66v594h-105v-526q-162 -44 -294 -44q-646 0 -646 655q0 615 665 615q185 0 380 -60v90q-195 60 -400 60q-750 0 -750 -705z" />
<glyph unicode="H" horiz-adv-x="1485" d="M0 0v1430h105v-660h975v660h105v-1430h-105v680h-975v-680h-105z" />
<glyph unicode="I" d="M0 0h105v1430h-105v-1430z" />
<glyph unicode="J" horiz-adv-x="630" d="M-300 0q455 0 455 412v1018h-105v-1018q0 -322 -350 -322v-90z" />
<glyph unicode="K" horiz-adv-x="1263" d="M0 0h105v1430h-105v-1430zM200 698l663 -698h177l-745 763l661 667h-134l-622 -620v-112z" />
<glyph unicode="L" horiz-adv-x="1183" d="M0 0h933v90h-828v1340h-105v-1430z" />
<glyph unicode="M" horiz-adv-x="1750" d="M0 0v1430h105l645 -1307l605 1307h95v-1430h-95v1237l-568 -1237h-86l-606 1247v-1247h-95z" />
<glyph unicode="N" horiz-adv-x="1485" d="M0 0v1430h135l955 -1242v1242h95v-1430h-85l-1005 1312v-1312h-95z" />
<glyph unicode="O" horiz-adv-x="1625" d="M0 713q0 727 718 727q707 0 707 -727q0 -723 -707 -723q-718 0 -718 723zM115 719q0 -639 603 -639q592 0 592 639q0 631 -592 631q-603 0 -603 -631z" />
<glyph unicode="P" horiz-adv-x="1243" d="M0 0v1430h610q408 0 408 -343q0 -387 -569 -479l-28 86q480 75 480 385q0 258 -308 258h-488v-1337h-105z" />
<glyph unicode="Q" horiz-adv-x="1625" d="M0 713q0 727 718 727q707 0 707 -727q0 -598 -535 -716l262 -300l-94 -68l-310 361q-748 0 -748 723zM115 719q0 -629 603 -629q592 0 592 629q0 631 -592 631q-603 0 -603 -631z" />
<glyph unicode="R" horiz-adv-x="1215" d="M0 0v1430h590q388 0 388 -343q0 -297 -421 -421l483 -666h-144l-475 663v71q440 65 440 345q0 258 -288 258h-468v-1337h-105z" />
<glyph unicode="S" horiz-adv-x="1310" d="M-30 1020q0 420 575 420q240 0 465 -60v-90q-225 60 -465 60q-470 0 -470 -330q0 -250 294 -250h314q397 0 397 -340q0 -440 -544 -440q-271 0 -496 60v100q225 -70 496 -70q439 0 439 350q0 240 -292 240h-314q-399 0 -399 350z" />
<glyph unicode="T" horiz-adv-x="1075" d="M-450 1340h480v-1340h105v1340h490v90h-1075v-90z" />
<glyph unicode="U" horiz-adv-x="1450" d="M0 552v878h105v-878q0 -472 470 -472t470 472v878h105v-878q0 -562 -575 -562t-575 562z" />
<glyph unicode="V" horiz-adv-x="1472" d="M0 1430h115l601 -1349l594 1349h112l-627 -1430h-165z" />
<glyph unicode="W" horiz-adv-x="1849" d="M150 1430h99l243 -1329l462 1329h105l475 -1342l275 1342h91l-289 -1430h-152l-452 1306l-453 -1306h-149z" />
<glyph unicode="X" horiz-adv-x="1300" d="M0 0l1125 1430h125l-1125 -1430h-125zM0 1430h125l1125 -1430h-125z" />
<glyph unicode="Y" horiz-adv-x="1230" d="M0 1430h125l463 -830l477 830h115l-536 -930v-500h-105v500z" />
<glyph unicode="Z" horiz-adv-x="1250" d="M0 0h980v90h-847l867 1250v90h-980v-90h874l-894 -1260v-80z" />
<glyph unicode="[" horiz-adv-x="545" d="M0 -380h370v90h-275v1630h275v90h-370v-1810z" />
<glyph unicode="\" horiz-adv-x="965" d="M0 1430h115l725 -1430h-115z" />
<glyph unicode="]" horiz-adv-x="545" d="M0 -290v-90h370v1810h-370v-90h275v-1630h-275z" />
<glyph unicode="^" horiz-adv-x="1050" d="M0 700l400 730h150l400 -730h-110l-369 673l-361 -673h-110z" />
<glyph unicode="_" horiz-adv-x="1050" d="M0 0v-90h1000v90h-1000z" />
<glyph unicode="`" horiz-adv-x="400" d="M0 1355v150l400 -150v-150z" />
<glyph unicode="a" horiz-adv-x="1135" d="M0 317q0 303 446 303q157 0 334 -20v129q0 231 -363 231q-162 0 -332 -50v90q170 50 332 50q468 0 468 -336v-714h-64l-34 74q-207 -74 -392 -74q-395 0 -395 317zM105 320q0 -230 290 -230q192 0 385 82v338q-170 20 -334 20q-341 0 -341 -210z" />
<glyph unicode="b" horiz-adv-x="1188" d="M0 43q189 -43 415 -43q523 0 523 546q0 504 -498 504q-136 0 -335 -50v430h-105v-1387zM105 123v773q190 54 334 54q397 0 397 -397q0 -459 -430 -459q-130 0 -301 29z" />
<glyph unicode="c" horiz-adv-x="1025" d="M0 545q0 -545 570 -545q150 0 280 30v90q-130 -30 -260 -30q-475 0 -475 455q0 415 475 415q130 0 260 -30v90q-130 30 -280 30q-570 0 -570 -505z" />
<glyph unicode="d" horiz-adv-x="1190" d="M0 546q0 504 498 504q136 0 337 -50v430h105v-1367q-191 -63 -471 -63q-469 0 -469 546zM112 553q0 -459 387 -459q144 0 336 39v763q-192 54 -336 54q-387 0 -387 -397z" />
<glyph unicode="e" horiz-adv-x="1126" d="M0 537q0 513 503 513q399 0 399 -409q0 -65 -10 -139h-787q0 -412 486 -412q139 0 278 30v-90q-139 -30 -338 -30q-531 0 -531 537zM105 596h688q2 24 2 46q0 320 -322 320q-350 0 -368 -366z" />
<glyph unicode="f" horiz-adv-x="721" d="M0 -5v1106q0 381 392 381q129 0 234 -40v-90q-99 40 -235 40q-286 0 -286 -233v-109h395v-90h-395v-961z" />
<glyph unicode="g" horiz-adv-x="1187" d="M0 531q0 -531 498 -531q136 0 334 50v-50q0 -290 -376 -290q-193 0 -346 50v-90q150 -50 344 -50q483 0 483 380v1007q-199 43 -412 43q-525 0 -525 -519zM102 533q0 423 415 423q140 0 315 -24v-778q-189 -54 -333 -54q-397 0 -397 433z" />
<glyph unicode="h" horiz-adv-x="1185" d="M0 0v1430h105v-494q244 114 437 114q343 0 343 -391v-659h-105v702q0 254 -293 254q-159 0 -382 -133v-823h-105z" />
<glyph unicode="i" d="M0 0h105v1050h-105v-1050zM0 1330h105v100h-105v-100z" />
<glyph unicode="j" d="M-125 -303l75 -65q155 130 155 448v970h-105v-970q0 -298 -125 -383zM0 1330h105v100h-105v-100z" />
<glyph unicode="k" horiz-adv-x="1101" d="M0 0v1430h105v-462q193 82 413 82q372 0 372 -303q0 -230 -330 -314l356 -433h-154l-334 435v63q357 41 357 250q0 212 -290 212q-193 0 -390 -94v-866h-105z" />
<glyph unicode="l" d="M0 0h105v1430h-105v-1430z" />
<glyph unicode="m" horiz-adv-x="1805" d="M150 0v1050h75l11 -132q211 132 409 132q188 0 261 -144q191 144 387 144q332 0 332 -349v-701h-105v701q0 255 -248 255q-188 0 -327 -136v-820h-105v718q0 238 -226 238q-196 0 -359 -136v-820h-105z" />
<glyph unicode="n" horiz-adv-x="1185" d="M0 0v1050h75l13 -134q261 134 454 134q343 0 343 -331v-719h-105v722q0 234 -263 234q-189 0 -412 -133v-823h-105z" />
<glyph unicode="o" horiz-adv-x="1200" d="M0 525q0 525 500 525t500 -525q0 -524 -500 -524q-498 0 -500 524zM105 529q0 -439 395 -439t395 439q0 431 -395 431t-395 -431z" />
<glyph unicode="p" horiz-adv-x="1187" d="M0 -380v1387q209 43 432 43q505 0 505 -499q0 -551 -508 -551q-126 0 -324 50v-430h-105zM105 154q189 -54 323 -54q407 0 407 453q0 403 -405 403q-140 0 -325 -24v-778z" />
<glyph unicode="q" horiz-adv-x="1187" d="M0 531q0 -531 498 -531q136 0 334 50v-430h105v1387q-199 43 -412 43q-525 0 -525 -519zM102 533q0 423 415 423q140 0 315 -24v-778q-189 -54 -333 -54q-397 0 -397 433z" />
<glyph unicode="r" horiz-adv-x="560" d="M0 0v1050h75l13 -134q88 134 282 134v-84q-188 0 -265 -133v-833h-105z" />
<glyph unicode="s" horiz-adv-x="1050" d="M-20 750q0 300 437 300q188 0 363 -50v-100q-175 60 -363 60q-332 0 -332 -210q0 -180 225 -180h170q350 0 350 -270q0 -300 -436 -300q-189 0 -364 50v100q175 -60 364 -60q331 0 331 210q0 170 -245 170h-170q-330 0 -330 280z" />
<glyph unicode="t" horiz-adv-x="550" d="M0 283v937h66l20 -170h264v-90h-245v-663q0 -207 157 -207h88v-90h-86q-264 0 -264 283z" />
<glyph unicode="u" horiz-adv-x="1185" d="M0 391v659h105v-662q0 -294 292 -294q159 0 383 133v823h105v-1050h-77l-12 134q-261 -134 -454 -134q-342 0 -342 391z" />
<glyph unicode="v" horiz-adv-x="1010" d="M0 1050h120l384 -959l386 959h120l-447 -1050h-122z" />
<glyph unicode="w" horiz-adv-x="1519" d="M1 1050h107l226 -923l333 923h77l342 -903l231 903h103l-274 -1050h-109l-331 895l-326 -895h-113z" />
<glyph unicode="x" horiz-adv-x="990" d="M0 0l815 1050h125l-815 -1050h-125zM0 1050h125l815 -1050h-125z" />
<glyph unicode="y" horiz-adv-x="1061" d="M0 1050h121l390 -948l384 948h116l-456 -1081q-116 -286 -348 -357l-31 84q182 66 278 288z" />
<glyph unicode="z" horiz-adv-x="990" d="M0 0v90l665 870h-645v90h770v-90l-657 -870h637v-90h-770z" />
<glyph unicode="{" horiz-adv-x="570" d="M0 480q210 0 210 -382q0 -302 130 -478h105q-130 176 -130 478q0 352 -190 427q190 75 190 427q0 302 130 478h-105q-130 -176 -130 -478q0 -382 -210 -382v-90z" />
<glyph unicode="|" d="M0 -380h105v1810h-105v-1810z" />
<glyph unicode="}" horiz-adv-x="570" d="M-1 -380h105q130 176 130 478q0 382 210 382v90q-210 0 -210 382q0 302 -130 478h-105q130 -176 130 -478q0 -352 190 -427q-190 -75 -190 -427q0 -302 -130 -478z" />
<glyph unicode="~" horiz-adv-x="950" d="M0 460v90q105 110 365 20t385 20v-90q-105 -110 -365 -20t-385 -20z" />
<glyph unicode="&#xa1;" d="M0 -380v1060h105v-1060h-105zM0 945v105h105v-105h-105z" />
<glyph unicode="&#xa2;" horiz-adv-x="1050" d="M0 735q0 451 510 505v190h95v-190q105 0 245 -50v-90q-130 50 -260 50q-485 0 -485 -415q0 -455 485 -455q130 0 260 50v-90q-140 -50 -245 -50v-190h-95v190q-510 42 -510 545z" />
<glyph unicode="&#xa3;" horiz-adv-x="1217" d="M65 -30v92q186 75 186 351q0 117 -77 291t-77 323q0 413 558 413q270 0 427 -100v-120q-158 130 -434 130q-434 0 -434 -321q0 -144 55 -259h446v-90h-414q59 -164 59 -264q0 -137 -64 -298q172 18 381.5 -39t404.5 81v-110q-188 -131 -485.5 -56.5t-531.5 -23.5z" />
<glyph unicode="&#xa4;" horiz-adv-x="1139" d="M0 173l116 120q-57 103 -57 232q0 137 57 231l-116 120l109 112l125 -121q108 68 242 68q124 0 225 -68l128 121l110 -112l-118 -120q58 -83 58 -231q0 -139 -68 -232l128 -120l-110 -112l-128 123q-108 -60 -233 -60q-124 0 -243 60l-116 -123zM222 529q0 -246 245 -246 t245 246q0 244 -245 244t-245 -244z" />
<glyph unicode="&#xa5;" horiz-adv-x="1250" d="M0 1430h125l442 -661l448 661h135l-493 -700h373v-90h-416v-171h416v-90h-416v-379h-105v379h-389v90h389v171h-389v90h347z" />
<glyph unicode="&#xa6;" horiz-adv-x="201" />
<glyph unicode="&#xa7;" horiz-adv-x="1050" d="M0 720q0 148 162 206q-162 50 -162 224q0 290 457 290q168 0 343 -50v-100q-175 60 -343 60q-352 0 -352 -200q0 -170 255 -170h110q380 0 380 -267q0 -160 -165 -214q165 -62 165 -219q0 -290 -436 -290q-189 0 -364 50v100q175 -60 364 -60q331 0 331 200 q0 170 -275 170h-110q-360 0 -360 270zM105 717q0 -179 265 -179h110q265 0 265 166q0 187 -265 187h-110q-265 0 -265 -174z" />
<glyph unicode="&#xa8;" horiz-adv-x="555" d="M0 1280v150h185v-150h-185zM370 1280v150h185v-150h-185z" />
<glyph unicode="&#xa9;" horiz-adv-x="1163" d="M0 1023q0 427 430 427q433 0 433 -427q0 -415 -433 -415q-418 0 -430 415zM73 1025q0 -361 357 -361q360 0 360 361q0 369 -360 369q-357 0 -357 -369zM172 1032q0 -287 289 -287q83 0 154 23v62q-71 -27 -146 -27q-226 0 -226 229q0 213 226 213q75 0 146 -27v62 q-71 23 -154 23q-289 0 -289 -271z" />
<glyph unicode="&#xaa;" horiz-adv-x="402" />
<glyph unicode="&#xab;" horiz-adv-x="849" d="M0 525l258 -375h122l-258 375l258 375h-122zM319 525l258 -375h122l-258 375l258 375h-122z" />
<glyph unicode="&#xac;" horiz-adv-x="1395" />
<glyph unicode="&#xad;" horiz-adv-x="700" d="M0 480v90h500v-90h-500z" />
<glyph unicode="&#xae;" horiz-adv-x="1163" d="M0 1023q0 427 430 427q433 0 433 -427q0 -415 -433 -415q-418 0 -430 415zM73 1025q0 -361 357 -361q360 0 360 361q0 369 -360 369q-357 0 -357 -369zM254 756v536h229q153 0 153 -128q0 -105 -150 -155l184 -253h-91l-171 241v45q154 25 154 119q0 74 -86 74h-153v-479 h-69z" />
<glyph unicode="&#xaf;" horiz-adv-x="360" />
<glyph unicode="&#xb0;" horiz-adv-x="752" d="M0 1170q0 260 278 260q274 0 274 -260q0 -259 -274 -259q-278 0 -278 259zM90 1172q0 -187 188 -187q184 0 184 187q0 184 -184 184q-188 0 -188 -184z" />
<glyph unicode="&#xb1;" horiz-adv-x="636" />
<glyph unicode="&#xb2;" horiz-adv-x="300" />
<glyph unicode="&#xb3;" horiz-adv-x="300" />
<glyph unicode="&#xb4;" horiz-adv-x="400" d="M0 1235v90l400 150v-90z" />
<glyph unicode="&#xb6;" horiz-adv-x="953" d="M0 986q0 444 443 444h510v-90h-150v-1774h-100v1774h-160v-1774h-100v972q-443 0 -443 448z" />
<glyph unicode="&#xb7;" horiz-adv-x="450" d="M0 525q0 125 125 125t125 -125t-125 -125t-125 125z" />
<glyph unicode="&#xb8;" horiz-adv-x="457" d="M0 -284v-88q108 -50 216 -50q241 0 241 173q0 172 -224 172l81 152h-95l-131 -230h153q123 0 123 -94q0 -95 -148 -95q-108 0 -216 60z" />
<glyph unicode="&#xb9;" horiz-adv-x="300" />
<glyph unicode="&#xba;" horiz-adv-x="402" />
<glyph unicode="&#xbb;" horiz-adv-x="849" d="M0 150h122l258 375l-258 375h-122l258 -375zM319 150h122l258 375l-258 375h-122l258 -375z" />
<glyph unicode="&#xbc;" horiz-adv-x="786" />
<glyph unicode="&#xbd;" horiz-adv-x="786" />
<glyph unicode="&#xbe;" horiz-adv-x="786" />
<glyph unicode="&#xbf;" horiz-adv-x="1115" d="M0 -240v-90q210 -50 400 -50q515 0 515 390t-497 390h-123v280h-105v-370h225q395 0 395 -300t-410 -300q-190 0 -400 50zM190 945v105h105v-105h-105z" />
<glyph unicode="&#xc0;" horiz-adv-x="1472" d="M0 0l647 1430h125l650 -1430h-125l-210 480h-608l31 90h537l-344 778l-591 -1348h-112zM500 1718v90l400 -150v-90z" />
<glyph unicode="&#xc1;" horiz-adv-x="1472" d="M0 0l647 1430h125l650 -1430h-125l-210 480h-608l31 90h537l-344 778l-591 -1348h-112zM500 1568v90l400 150v-90z" />
<glyph unicode="&#xc2;" horiz-adv-x="1472" d="M0 0l647 1430h125l650 -1430h-125l-210 480h-608l31 90h537l-344 778l-591 -1348h-112zM458 1574l195 260h110l195 -260h-100l-152 194l-148 -194h-100z" />
<glyph unicode="&#xc3;" horiz-adv-x="1472" d="M0 0l647 1430h125l650 -1430h-125l-210 480h-608l31 90h537l-344 778l-591 -1348h-112zM463 1649v90q105 80 240 20t260 20v-90q-105 -80 -240 -20t-260 -20z" />
<glyph unicode="&#xc4;" horiz-adv-x="1472" d="M0 0l647 1430h125l650 -1430h-125l-210 480h-608l31 90h537l-344 778l-591 -1348h-112zM489 1649v110h115v-110h-115zM809 1649v110h115v-110h-115z" />
<glyph unicode="&#xc5;" horiz-adv-x="1472" d="M0 0l647 1430h125l650 -1430h-125l-210 480h-608l31 90h537l-344 778l-591 -1348h-112zM479 1576q0 210 228 210q224 0 224 -210q0 -209 -224 -209q-228 0 -228 209zM559 1578q0 -147 148 -147q144 0 144 147q0 144 -144 144q-148 0 -148 -144z" />
<glyph unicode="&#xc6;" horiz-adv-x="1875" d="M0 0l607 1430h1098v-90h-918l240 -570h643v-90h-604l256 -590h403v-90h-498l-557 1353l-303 -783h511l38 -90h-600l-194 -480h-122z" />
<glyph unicode="&#xc7;" horiz-adv-x="1385" d="M0 735q0 -745 750 -745q205 0 400 60v90q-195 -60 -380 -60q-665 0 -665 655q0 615 665 615q185 0 380 -60v90q-195 60 -400 60q-750 0 -750 -705zM483 -284v-88q108 -50 216 -50q241 0 241 173q0 172 -224 172l81 152h-95l-131 -230h153q123 0 123 -94q0 -95 -148 -95 q-108 0 -216 60z" />
<glyph unicode="&#xc8;" horiz-adv-x="1228" d="M0 0h953v90h-848v590h800v90h-800v570h834v90h-939v-1430zM286 1718v90l400 -150v-90z" />
<glyph unicode="&#xc9;" horiz-adv-x="1228" d="M0 0h953v90h-848v590h800v90h-800v570h834v90h-939v-1430zM286 1568v90l400 150v-90z" />
<glyph unicode="&#xca;" horiz-adv-x="1228" d="M0 0h953v90h-848v590h800v90h-800v570h834v90h-939v-1430zM229 1574l195 260h110l195 -260h-100l-152 194l-148 -194h-100z" />
<glyph unicode="&#xcb;" horiz-adv-x="1228" d="M0 0h953v90h-848v590h800v90h-800v570h834v90h-939v-1430zM253 1649v110h115v-110h-115zM573 1649v110h115v-110h-115z" />
<glyph unicode="&#xcc;" d="M-150 1708v100l405 -150v-100zM0 0v1430h105v-1430h-105z" />
<glyph unicode="&#xcd;" d="M-150 1568v90l405 150v-90zM0 0v1430h105v-1430h-105z" />
<glyph unicode="&#xce;" d="M-200 1574h100l148 194l152 -194h100l-195 260h-110zM0 0v1430h105v-1430h-105z" />
<glyph unicode="&#xcf;" d="M-165 1649v110h115v-110h-115zM0 0v1430h105v-1430h-105zM155 1649v110h115v-110h-115z" />
<glyph unicode="&#xd0;" horiz-adv-x="663" />
<glyph unicode="&#xd1;" horiz-adv-x="1485" d="M0 0v1430h135l955 -1242v1242h95v-1430h-85l-1005 1312v-1312h-95zM365 1649v90q105 80 240 20t260 20v-90q-105 -80 -240 -20t-260 -20z" />
<glyph unicode="&#xd2;" horiz-adv-x="1625" d="M0 713q0 727 718 727q707 0 707 -727q0 -723 -707 -723q-718 0 -718 723zM115 719q0 -639 603 -639q592 0 592 639q0 631 -592 631q-603 0 -603 -631zM490 1718v90l400 -150v-90z" />
<glyph unicode="&#xd3;" horiz-adv-x="1625" d="M0 713q0 727 718 727q707 0 707 -727q0 -723 -707 -723q-718 0 -718 723zM115 719q0 -639 603 -639q592 0 592 639q0 631 -592 631q-603 0 -603 -631zM490 1568v90l400 150v-90z" />
<glyph unicode="&#xd4;" horiz-adv-x="1625" d="M0 713q0 727 718 727q707 0 707 -727q0 -723 -707 -723q-718 0 -718 723zM115 719q0 -639 603 -639q592 0 592 639q0 631 -592 631q-603 0 -603 -631zM458 1574l195 260h110l195 -260h-100l-152 194l-148 -194h-100z" />
<glyph unicode="&#xd5;" horiz-adv-x="1625" d="M0 713q0 727 718 727q707 0 707 -727q0 -723 -707 -723q-718 0 -718 723zM115 719q0 -639 603 -639q592 0 592 639q0 631 -592 631q-603 0 -603 -631zM463 1649v90q105 80 240 20t260 20v-90q-105 -80 -240 -20t-260 -20z" />
<glyph unicode="&#xd6;" horiz-adv-x="1625" d="M0 713q0 727 718 727q707 0 707 -727q0 -723 -707 -723q-718 0 -718 723zM115 719q0 -639 603 -639q592 0 592 639q0 631 -592 631q-603 0 -603 -631zM499 1649v110h115v-110h-115zM819 1649v110h115v-110h-115z" />
<glyph unicode="&#xd7;" horiz-adv-x="636" />
<glyph unicode="&#xd8;" horiz-adv-x="1625" d="M0 713q0 727 718 727q707 0 707 -727q0 -723 -707 -723q-718 0 -718 723zM98 0l1083 1430h138l-1084 -1430h-137zM115 719q0 -639 603 -639q592 0 592 639q0 631 -592 631q-603 0 -603 -631z" />
<glyph unicode="&#xd9;" horiz-adv-x="1450" d="M0 552v878h105v-878q0 -472 470 -472t470 472v878h105v-878q0 -562 -575 -562t-575 562zM398 1718v90l400 -150v-90z" />
<glyph unicode="&#xda;" horiz-adv-x="1450" d="M0 552v878h105v-878q0 -472 470 -472t470 472v878h105v-878q0 -562 -575 -562t-575 562zM398 1568v90l400 150v-90z" />
<glyph unicode="&#xdb;" horiz-adv-x="1450" d="M0 552v878h105v-878q0 -472 470 -472t470 472v878h105v-878q0 -562 -575 -562t-575 562zM330 1574l195 260h110l195 -260h-100l-152 194l-148 -194h-100z" />
<glyph unicode="&#xdc;" horiz-adv-x="1450" d="M0 552v878h105v-878q0 -472 470 -472t470 472v878h105v-878q0 -562 -575 -562t-575 562zM350 1649v110h115v-110h-115zM670 1649v110h115v-110h-115z" />
<glyph unicode="&#xdd;" horiz-adv-x="526" />
<glyph unicode="&#xde;" horiz-adv-x="576" />
<glyph unicode="&#xdf;" horiz-adv-x="1181" d="M0 0v959q0 468 464 468q400 0 400 -397v-55q-324 -103 -324 -258q0 -111 195.5 -182.5t195.5 -232.5q0 -302 -394 -302h-132v90h134q277 0 277 212q0 111 -190.5 177.5t-190.5 234.5q0 208 318 316q0 307 -296 307q-352 0 -352 -381v-956h-105z" />
<glyph unicode="&#xe0;" horiz-adv-x="1135" d="M0 317q0 303 446 303q157 0 334 -20v129q0 231 -363 231q-162 0 -332 -50v90q170 50 332 50q468 0 468 -336v-714h-64l-34 74q-207 -74 -392 -74q-395 0 -395 317zM105 320q0 -230 290 -230q192 0 385 82v338q-170 20 -334 20q-341 0 -341 -210zM258 1385v90l400 -150 v-90z" />
<glyph unicode="&#xe1;" horiz-adv-x="1135" d="M0 317q0 303 446 303q157 0 334 -20v129q0 231 -363 231q-162 0 -332 -50v90q170 50 332 50q468 0 468 -336v-714h-64l-34 74q-207 -74 -392 -74q-395 0 -395 317zM105 320q0 -230 290 -230q192 0 385 82v338q-170 20 -334 20q-341 0 -341 -210zM258 1235v90l400 150v-90 z" />
<glyph unicode="&#xe2;" horiz-adv-x="1135" d="M0 317q0 303 446 303q157 0 334 -20v129q0 231 -363 231q-162 0 -332 -50v90q170 50 332 50q468 0 468 -336v-714h-64l-34 74q-207 -74 -392 -74q-395 0 -395 317zM105 320q0 -230 290 -230q192 0 385 82v338q-170 20 -334 20q-341 0 -341 -210zM215 1280h100l148 194 l152 -194h100l-195 260h-110z" />
<glyph unicode="&#xe3;" horiz-adv-x="1135" d="M0 317q0 303 446 303q157 0 334 -20v129q0 231 -363 231q-162 0 -332 -50v90q170 50 332 50q468 0 468 -336v-714h-64l-34 74q-207 -74 -392 -74q-395 0 -395 317zM105 320q0 -230 290 -230q192 0 385 82v338q-170 20 -334 20q-341 0 -341 -210zM203 1289v90 q105 80 240 20t260 20v-90q-105 -80 -240 -20t-260 -20z" />
<glyph unicode="&#xe4;" horiz-adv-x="1135" d="M0 317q0 303 446 303q157 0 334 -20v129q0 231 -363 231q-162 0 -332 -50v90q170 50 332 50q468 0 468 -336v-714h-64l-34 74q-207 -74 -392 -74q-395 0 -395 317zM105 320q0 -230 290 -230q192 0 385 82v338q-170 20 -334 20q-341 0 -341 -210zM251 1290v110h115v-110 h-115zM571 1290v110h115v-110h-115z" />
<glyph unicode="&#xe5;" horiz-adv-x="1135" d="M0 317q0 303 446 303q157 0 334 -20v129q0 231 -363 231q-162 0 -332 -50v90q170 50 332 50q468 0 468 -336v-714h-64l-34 74q-207 -74 -392 -74q-395 0 -395 317zM105 320q0 -230 290 -230q192 0 385 82v338q-170 20 -334 20q-341 0 -341 -210zM227 1539q0 220 238 220 q234 0 234 -220q0 -219 -234 -219q-238 0 -238 219zM317 1541q0 -147 148 -147q144 0 144 147q0 144 -144 144q-148 0 -148 -144z" />
<glyph unicode="&#xe6;" horiz-adv-x="1830" d="M0 329q0 291 427 291q154 0 316 -22v133q0 229 -322 229q-170 0 -332 -48v85q168 53 334 53q329 0 396 -180q117 180 392 180q458 0 384 -548h-747q0 -412 440 -412q148 0 285 29v-89q-146 -30 -341 -30q-252 0 -413 177q-198 -177 -433 -177q-386 0 -386 329zM105 330 q0 -240 280 -240q202 0 355 172v248q-150 20 -314 20q-321 0 -321 -200zM846 596h638q34 364 -310 364q-310 0 -328 -364z" />
<glyph unicode="&#xe7;" horiz-adv-x="1025" d="M0 545q0 -545 570 -545q150 0 280 30v90q-130 -30 -260 -30q-475 0 -475 455q0 415 475 415q130 0 260 -30v90q-130 30 -280 30q-570 0 -570 -505zM298 -284v-88q108 -50 216 -50q241 0 241 173q0 172 -224 172l81 152h-95l-131 -230h153q123 0 123 -94q0 -95 -148 -95 q-108 0 -216 60z" />
<glyph unicode="&#xe8;" horiz-adv-x="1126" d="M0 537q0 513 503 513q462 0 389 -548h-787q0 -412 486 -412q139 0 278 30v-90q-139 -30 -338 -30q-531 0 -531 537zM105 596h688q24 366 -320 366q-350 0 -368 -366zM268 1385v90l400 -150v-90z" />
<glyph unicode="&#xe9;" horiz-adv-x="1126" d="M0 537q0 513 503 513q462 0 389 -548h-787q0 -412 486 -412q139 0 278 30v-90q-139 -30 -338 -30q-531 0 -531 537zM105 596h688q24 366 -320 366q-350 0 -368 -366zM268 1235v90l400 150v-90z" />
<glyph unicode="&#xea;" horiz-adv-x="1126" d="M0 537q0 513 503 513q462 0 389 -548h-787q0 -412 486 -412q139 0 278 30v-90q-139 -30 -338 -30q-531 0 -531 537zM105 596h688q24 366 -320 366q-350 0 -368 -366zM215 1280h100l148 194l152 -194h100l-195 260h-110z" />
<glyph unicode="&#xeb;" horiz-adv-x="1126" d="M0 537q0 513 503 513q462 0 389 -548h-787q0 -412 486 -412q139 0 278 30v-90q-139 -30 -338 -30q-531 0 -531 537zM105 596h688q24 366 -320 366q-350 0 -368 -366zM251 1290v110h115v-110h-115zM571 1290v110h115v-110h-115z" />
<glyph unicode="&#xec;" d="M-150 1375v100l405 -150v-100zM0 0v1050h105v-1050h-105z" />
<glyph unicode="&#xed;" d="M-150 1235v90l405 150v-90zM0 0v1050h105v-1050h-105z" />
<glyph unicode="&#xee;" d="M-200 1280h100l148 194l152 -194h100l-195 260h-110zM0 0v1050h105v-1050h-105z" />
<glyph unicode="&#xef;" d="M-165 1290v110h115v-110h-115zM0 0v1050h105v-1050h-105zM155 1290v110h115v-110h-115z" />
<glyph unicode="&#xf0;" horiz-adv-x="483" />
<glyph unicode="&#xf1;" horiz-adv-x="1185" d="M0 0v1050h75l13 -134q261 134 454 134q343 0 343 -331v-719h-105v722q0 234 -263 234q-189 0 -412 -133v-823h-105zM203 1289v90q105 80 240 20t260 20v-90q-105 -80 -240 -20t-260 -20z" />
<glyph unicode="&#xf2;" horiz-adv-x="1200" d="M0 525q0 525 500 525t500 -525q0 -524 -500 -524q-498 0 -500 524zM105 529q0 -439 395 -439t395 439q0 431 -395 431t-395 -431zM284 1385v90l400 -150v-90z" />
<glyph unicode="&#xf3;" horiz-adv-x="1200" d="M0 525q0 525 500 525t500 -525q0 -524 -500 -524q-498 0 -500 524zM105 529q0 -439 395 -439t395 439q0 431 -395 431t-395 -431zM292 1235v90l400 150v-90z" />
<glyph unicode="&#xf4;" horiz-adv-x="1200" d="M0 525q0 525 500 525t500 -525q0 -524 -500 -524q-498 0 -500 524zM105 529q0 -439 395 -439t395 439q0 431 -395 431t-395 -431zM235 1280h100l148 194l152 -194h100l-195 260h-110z" />
<glyph unicode="&#xf5;" horiz-adv-x="1200" d="M0 525q0 525 500 525t500 -525q0 -524 -500 -524q-498 0 -500 524zM105 529q0 -439 395 -439t395 439q0 431 -395 431t-395 -431zM246 1289v90q105 80 240 20t260 20v-90q-105 -80 -240 -20t-260 -20z" />
<glyph unicode="&#xf6;" horiz-adv-x="1200" d="M0 525q0 525 500 525t500 -525q0 -524 -500 -524q-498 0 -500 524zM105 529q0 -439 395 -439t395 439q0 431 -395 431t-395 -431zM281 1290v110h115v-110h-115zM601 1290v110h115v-110h-115z" />
<glyph unicode="&#xf7;" horiz-adv-x="985" d="M0 480h785v90h-785v-90zM320 150v130h145v-130h-145zM320 770v130h145v-130h-145z" />
<glyph unicode="&#xf8;" horiz-adv-x="1200" d="M0 525q0 525 500 525t500 -525q0 -524 -500 -524q-498 0 -500 524zM45 0l800 1050h138l-801 -1050h-137zM105 529q0 -439 395 -439t395 439q0 431 -395 431t-395 -431z" />
<glyph unicode="&#xf9;" horiz-adv-x="1185" d="M0 391v659h105v-662q0 -294 292 -294q159 0 383 133v823h105v-1050h-77l-12 134q-261 -134 -454 -134q-342 0 -342 391zM258 1385v90l400 -150v-90z" />
<glyph unicode="&#xfa;" horiz-adv-x="1185" d="M0 391v659h105v-662q0 -294 292 -294q159 0 383 133v823h105v-1050h-77l-12 134q-261 -134 -454 -134q-342 0 -342 391zM258 1235v90l400 150v-90z" />
<glyph unicode="&#xfb;" horiz-adv-x="1185" d="M0 391v659h105v-662q0 -294 292 -294q159 0 383 133v823h105v-1050h-77l-12 134q-261 -134 -454 -134q-342 0 -342 391zM205 1280h100l148 194l152 -194h100l-195 260h-110z" />
<glyph unicode="&#xfc;" horiz-adv-x="1185" d="M0 391v659h105v-662q0 -294 292 -294q159 0 383 133v823h105v-1050h-77l-12 134q-261 -134 -454 -134q-342 0 -342 391zM228 1290v110h115v-110h-115zM548 1290v110h115v-110h-115z" />
<glyph unicode="&#xfd;" horiz-adv-x="393" />
<glyph unicode="&#xfe;" horiz-adv-x="348" />
<glyph unicode="&#xff;" horiz-adv-x="393" />
<glyph unicode="&#x152;" horiz-adv-x="2215" d="M0 713q0 717 718 717h1257v-90h-855q275 -137 305 -570h515v-90h-515q-30 -447 -317 -590h882v-90h-1272q-718 0 -718 713zM115 719q0 -629 603 -629q592 0 592 629q0 621 -592 621q-603 0 -603 -621z" />
<glyph unicode="&#x153;" horiz-adv-x="1944" d="M0 522q0 528 504 528q284 0 405 -219q98 219 407 219q477 0 390 -548h-743q0 -412 442 -412q147 0 279 38v-96q-137 -32 -333 -32q-312 0 -441 226q-115 -226 -406 -226q-504 0 -504 522zM105 529q0 -439 395 -439q355 0 355 439q0 431 -355 431q-395 0 -395 -431z M960 596h638q34 366 -310 366q-310 0 -328 -366z" />
<glyph unicode="&#x178;" horiz-adv-x="526" />
<glyph unicode="&#x2c6;" horiz-adv-x="550" d="M0 1280h100l148 194l152 -194h100l-195 260h-110z" />
<glyph unicode="&#x2dc;" horiz-adv-x="700" d="M0 460v90q105 80 240 20t260 20v-90q-105 -80 -240 -20t-260 -20z" />
<glyph unicode="&#x2000;" horiz-adv-x="917" />
<glyph unicode="&#x2001;" horiz-adv-x="1834" />
<glyph unicode="&#x2002;" horiz-adv-x="917" />
<glyph unicode="&#x2003;" horiz-adv-x="1834" />
<glyph unicode="&#x2004;" horiz-adv-x="611" />
<glyph unicode="&#x2005;" horiz-adv-x="458" />
<glyph unicode="&#x2006;" horiz-adv-x="305" />
<glyph unicode="&#x2007;" horiz-adv-x="305" />
<glyph unicode="&#x2008;" horiz-adv-x="229" />
<glyph unicode="&#x2009;" horiz-adv-x="366" />
<glyph unicode="&#x200a;" horiz-adv-x="101" />
<glyph unicode="&#x2010;" horiz-adv-x="700" d="M0 480v90h500v-90h-500z" />
<glyph unicode="&#x2011;" horiz-adv-x="700" d="M0 480v90h500v-90h-500z" />
<glyph unicode="&#x2012;" horiz-adv-x="700" d="M0 480v90h500v-90h-500z" />
<glyph unicode="&#x2013;" horiz-adv-x="684" />
<glyph unicode="&#x2014;" horiz-adv-x="894" />
<glyph unicode="&#x2018;" horiz-adv-x="475" d="M-1 1430l150 -435h125l-150 435h-125z" />
<glyph unicode="&#x2019;" horiz-adv-x="475" d="M0 995h125l150 435h-125z" />
<glyph unicode="&#x201a;" horiz-adv-x="234" />
<glyph unicode="&#x201c;" horiz-adv-x="785" d="M0 995h125l150 435h-125zM310 995h125l150 435h-125z" />
<glyph unicode="&#x201d;" horiz-adv-x="905" d="M-1 1430l150 -435h125l-150 435h-125zM309 1430l150 -435h125l-150 435h-125z" />
<glyph unicode="&#x201e;" horiz-adv-x="785" d="M0 -250h125l150 435h-125zM310 -250h125l150 435h-125z" />
<glyph unicode="&#x2022;" horiz-adv-x="630" d="M0 725q0 215 215 215t215 -215t-215 -215t-215 215z" />
<glyph unicode="&#x2026;" horiz-adv-x="792" />
<glyph unicode="&#x202f;" horiz-adv-x="366" />
<glyph unicode="&#x2039;" horiz-adv-x="530" d="M0 525l258 -375h122l-258 375l258 375h-122z" />
<glyph unicode="&#x203a;" horiz-adv-x="530" d="M0 150h122l258 375l-258 375h-122l258 -375z" />
<glyph unicode="&#x205f;" horiz-adv-x="458" />
<glyph unicode="&#x20ac;" horiz-adv-x="1385" d="M0 735q0 -745 750 -745q215 0 400 60v100q-185 -70 -380 -70q-568 0 -645 482h833v90h-843v170h843v90h-833q77 438 645 438q195 0 380 -70v100q-185 60 -400 60q-750 0 -750 -705z" />
<glyph unicode="&#x2122;" horiz-adv-x="1606" d="M0 1359v71h511v-71h-212v-602h-87v602h-212zM600 757v673h110l248 -561l242 561h106v-673h-78v543l-239 -543h-69l-243 543v-543h-77z" />
<glyph unicode="&#xe000;" horiz-adv-x="1050" d="M0 0v1050h1050v-1050h-1050z" />
</font>
</defs>
</svg>
